<?xml version="1.0" encoding="utf-8"?>
<!-- Generator: Adobe Illustrator 23.1.1, SVG Export Plug-In . SVG Version: 6.00 Build 0)  -->
<svg version="1.1" id="Capa_1" xmlns="http://www.w3.org/2000/svg" xmlns:xlink="http://www.w3.org/1999/xlink" x="0px" y="0px"
	 viewBox="0 0 193.5 96.4" style="enable-background:new 0 0 193.5 96.4;" xml:space="preserve">
<style type="text/css">
	.st0{fill:#FFFFFF;}
	.st1{fill:none;stroke:#FFFFFF;stroke-width:0.25;stroke-linejoin:round;stroke-miterlimit:10;}
</style>
<g>
	<path class="st0" d="M98.5,66.8h-0.2c0.1,0,0.1,0.1,0.2,0.1L98.5,66.8z"/>
	<path class="st0" d="M85.6,69.6l-0.1,0.6h0.7C86,70,85.8,69.8,85.6,69.6z"/>
	<path class="st0" d="M149.9,66.5h0.3c0-0.1,0-0.2-0.1-0.2l0,0c0,0-0.2-0.3-0.5-0.3l0,0c-0.1,0-1.1,0.1-1.9,2.4
		c-0.3,1-0.4,1.8-0.4,2.5c0-0.1,0-0.2,0.1-0.3l0-0.1c0.3-1.7,0.4-2,0.4-2.2C148,67,149,66.5,149.9,66.5z"/>
	<path class="st0" d="M137.2,21.5c0.9-0.1,2.1-0.3,3.4-0.5c3.4-0.5,8.7-0.1,13.3,0c4.7,0.1,8.4-0.2,13.3-1.2c3.3-0.7,5.5-1.5,6.6-2
		c0-1.3-0.4-2.3-1.4-2.7c-2.2-0.9-11.9,1.2-16.4,1.2s-8.9-0.8-11.6-0.7c-1.6,0-4.9,0.4-7.3,0.8c0.1,0.4,0.1,1.3,0.1,2.4
		C137.3,19.7,137.3,20.5,137.2,21.5z"/>
	<path class="st0" d="M140,26.6c-0.9,0-2.1,0.1-3.2,0.1c0,0.3-0.1,0.7-0.1,1c-0.2,1.3-0.4,2.5-0.7,3.6c-0.1,0.2-0.1,0.5-0.2,0.7
		c0,0.1,0,0.2-0.1,0.3c2.9-0.3,9.4-0.8,13.1-1.3c4.9-0.6,10.9-1,15.3-1.9c2.5-0.5,5.7-1.3,7.8-1.9c0.3-0.9,0.6-1.8,0.8-2.6
		c0.2-0.7,0.3-1.3,0.5-1.9c-2.7,0.7-8.9,2.3-15.3,2.9C149.4,26.5,142.1,26.6,140,26.6z"/>
	<path class="st0" d="M146.5,36c-1.9,0.3-4.8,0.8-7.1,1.2c1.5,0.8,2.5,1.9,3.1,3c1.3-0.2,2.7-0.3,4.1-0.5c0.4-0.9,0.6-1.4,0.8-1.7
		c0.1-0.3,0.6-1.2,1.9-1.1l0,0h4.4c0.8,0,1.9,0.5,2.2,1.7c0,0,0,0.1,0,0.3c1.1-0.1,2.2-0.2,3.4-0.2c0-0.1,0.1-0.3,0.2-0.5
		c0.4-0.8,1.1-1.3,2-1.3h4c0.9,0,1.5,0.4,1.8,0.8c0.8-1.9,1.7-3.6,2.4-5.3c-2.4,0.8-6.7,2-10.4,2.2C154.1,34.7,150.1,35.4,146.5,36z
		"/>
	<path class="st0" d="M156.7,61.2c0.8,1,1.2,2.1,1.4,3c4.5,1,8.6,2.7,9.1,2.5c0.5-0.2,0.2-2.3-0.7-3.4c-0.1-0.1-0.2-0.2-0.3-0.3
		c-1.7-0.4-4.8-1.1-7.4-1.5C158.2,61.4,157.5,61.3,156.7,61.2z"/>
	<path class="st0" d="M141.9,62.2c0.5-0.6,1-1.1,1.6-1.6c-0.5,0-0.9,0-1.3,0c0,0,0,0,0,0C142.1,60.7,142,61.3,141.9,62.2z"/>
	<path class="st0" d="M157.7,57.1c-0.4,0.3-0.8,0.4-1.3,0.4H152c-1,0-1.9-0.8-2.1-1.8c0-0.1,0-0.2-0.1-0.5h-1.4
		c-0.6,1.1-0.6,1.2-0.7,1.2c-0.4,0.7-1.1,1.1-2,1.1h-3.9c-0.8,0-1.5-0.4-1.9-1c-0.2-0.2-0.2-0.5-0.3-0.8c-1.8,1.6-4.2,2.4-6.8,2.4
		c-0.5,0-1,0-1.5-0.1c-0.2,0.1-0.3,0.1-0.5,0.2c1,0.2,1.5,0.8,1.7,1.3c0.1,0.1,0.2,0.3,0.3,0.8c0.2-0.1,0.5-0.3,0.8-0.4
		c0.3-1,1.1-1.7,2.1-1.7h4.1c0.2,0,0.4,0,0.6,0.1c6-0.7,12.9-0.4,15.3,0.2c2.6,0.6,5.2,1.5,6.5,1.9c-0.2-0.2-0.4-0.3-0.4-0.5
		c-0.1-0.2-0.2-1.1-0.1-2.4h-2.7C158.5,57.5,158,57.4,157.7,57.1z"/>
	<path class="st0" d="M144,44.5c0,0.6-0.1,1.2-0.4,1.7c0,0,0,0,0.1,0c0.6-1.3,1.1-2.4,1.6-3.4c-0.5,0.1-1,0.2-1.5,0.2
		C143.9,43.7,144,44.2,144,44.5z"/>
	<path class="st0" d="M135.7,46.3c-0.3-0.4-0.3-0.9-0.4-1.2l0-0.1c0-0.2-0.1-0.4-0.2-0.6c0,0,0,0-0.1,0c-0.2,0-0.8,0.7-1.2,2.4
		c0.7,0,1.5-0.1,2.2-0.1C135.9,46.7,135.8,46.5,135.7,46.3z"/>
	<path class="st0" d="M157,45c0.4,0,0.8,0,1.3,0c0.2-1.2,0.4-2.3,0.5-3.2c-0.7,0-1.5,0.1-2.3,0.1C156.7,42.8,156.8,43.9,157,45z"/>
	<path class="st0" d="M77.9,18.8c0,0.4-0.1,1-0.2,1.6c0,0.2-0.1,0.4-0.1,0.7c1.1,0.1,2.8,0.3,4.9,0.3c0.3-2.1,0.6-3.6,0.6-3.8
		c0-0.1,0-0.2,0.1-0.3c-2.6,0.1-4.3,0.1-5.1,0.1c0,0.2,0,0.5,0,0.7C78,18.2,78,18.5,77.9,18.8z"/>
	<path class="st0" d="M91.8,18.1c0,0.1-0.2,1-0.4,2.4c7-1.3,17.4-3.6,22.6-4.1c5.6-0.6,18.2-1.1,22.7-1.3c-0.6-1.4-1.7-3-3.4-3
		c-9.1-0.2-30.2,3.2-40.8,4.4c-0.3,0-0.7,0.1-1,0.1C91.8,17.1,91.9,17.6,91.8,18.1z"/>
	<path class="st0" d="M137.1,23.3c0-0.6,0.1-1.2,0.1-1.8c0-0.9,0.1-1.8,0.1-2.6c-2.3-0.2-6.5-0.5-12.1-0.5c-8.5,0-22.8,2.7-26.6,3.6
		c-2.6,0.6-5.3,1.4-7.8,2c-0.2,1.4-0.5,2.8-0.7,4.2c3.2-0.8,12.9-4.4,22.8-5.3C122.4,22.1,131,21.6,137.1,23.3z"/>
	<path class="st0" d="M76.4,28.4h4c0.1,0,0.5,0,1,0.2c0.2-1.2,0.4-2.4,0.6-3.6c-1.8,0-3.6-0.1-5-0.1C76.8,26,76.6,27.2,76.4,28.4z"
		/>
	<path class="st0" d="M81.3,35.5c-0.4,0.4-1,0.6-1.6,0.6h-2.5l-1,0.6c1.4,0.1,3.2,0.2,5,0.2c0.3-0.1,0.5-0.2,0.8-0.2h2.4l0.3-0.7
		h-1.7C82.3,36.1,81.7,35.9,81.3,35.5z"/>
	<path class="st0" d="M135.8,32c0.1-0.2,0.1-0.5,0.2-0.7c0.3-1.1,0.5-2.3,0.7-3.6c-1.6-0.5-5.5-1.2-14.1-1.5
		c-9.9-0.3-21.4,2.2-26.4,3.4c0.1,0.3,0.2,0.7,0.1,1.1c0,0-0.5,3-0.7,3.7c2.9-1.2,8.5-3,17.3-3.7C125.1,29.6,133.5,31.5,135.8,32z"
		/>
	<path class="st0" d="M84.8,36.1l-0.1,0.7h1.6c1.6-0.2,3.2-0.5,4.5-0.7H84.8z"/>
	<path class="st0" d="M102.1,36.8c0.6,0,1.1,0.3,1.6,0.7c0.3-0.4,0.8-0.7,1.7-0.7h7.7c1.2,0,3.7,0.5,5.3,2.2c0.2,0,0.5-0.1,0.9-0.1
		c0,0,0,0,0,0c0.1-0.3,0.1-0.7,0.4-1c0.4-0.7,1.1-1.1,1.9-1.1h4.4c0.3,0,1.1,0,1.8,0.7c0.3,0.3,0.6,0.9,0.5,1.8
		c0.2,0,0.4,0.1,0.6,0.1c1.3-1.3,3.1-2.6,5.5-3c-2-0.8-6.7-2.1-15.7-2.1C112.8,34.4,106.9,35.6,102.1,36.8z"/>
	<path class="st0" d="M108.4,60.8c0,0.2-0.3,1.9-0.6,3.3h1.1c0.2-1.3,0.6-3.8,0.7-4c0.1-0.4,0.2-0.7,0.3-0.9c-0.5,0-1,0.1-1.6,0.1
		C108.4,59.8,108.5,60.3,108.4,60.8z"/>
	<path class="st0" d="M79,58.8c0.4-0.4,0.9-0.6,1.5-0.6h4.4c0.3,0,1.1,0,1.8,0.7c0.1,0.1,0.2,0.3,0.3,0.5c0.4,0,0.8,0,1.2,0
		c1.3-0.8,3.1-1.4,5.6-1.3c0.1,0,0.3,0,0.4,0l0.1-0.5H88c-0.9,0-1.5-0.5-1.7-0.8c0,0,0,0,0,0c-0.4,0.5-1,0.8-1.6,0.8h-4c0,0,0,0,0,0
		c-1,0.2-2,0.5-2.9,0.7C78.3,58.3,78.7,58.5,79,58.8z"/>
	<path class="st0" d="M70.1,13.7c3.8,0.3,6.5,1.4,7.9,2.1c-0.1-1.6-0.3-2.5-0.3-2.5s-1.5-2.3-7.3-2.9c-4.4-0.4-8.6,0.4-10.3,0.8
		l0.3,3.1C63,14,66.9,13.5,70.1,13.7z"/>
	<path class="st0" d="M78,17C78,17,78,16.9,78,17L78,17C78,16.9,78,17,78,17z"/>
	<path class="st0" d="M66.4,19.9c0.8,0,1.6,0,2.6,0c0.2-1.2,0.3-2.1,0.4-2.3c0.1-0.3,0.1-0.7,0.3-1l-3.8,0.3c0,0.1,0.1,0.2,0.1,0.3
		C66,17.2,66.2,18.3,66.4,19.9z"/>
	<path class="st0" d="M77.9,18.8c-0.1,0.4-0.2,1-0.3,1.6c0,0,0,0,0.1,0C77.8,19.8,77.9,19.3,77.9,18.8z"/>
	<path class="st0" d="M67.7,28.1c0.2-1.2,0.4-2.5,0.6-3.7l0-0.2c0-0.3,0.1-0.5,0.1-0.8c-0.5,0-1,0.1-1.5,0.1
		C67.2,25,67.5,26.6,67.7,28.1z"/>
	<path class="st0" d="M77.1,23.7c0,0.1,0,0.2,0,0.3C77.1,23.9,77.1,23.8,77.1,23.7C77.1,23.7,77.1,23.7,77.1,23.7z"/>
	<path class="st0" d="M67.7,58.2c1.3,0,2,0.8,2.2,1.3c0,0.1,0.1,0.2,0.2,0.4h0.9c0.3-0.9,0.9-1.5,1.6-1.6l0.2-0.8
		c-0.2,0-0.5,0.1-0.7,0.1h-3.7c-0.4,0-0.7-0.1-1.1-0.3c-0.3,0.2-0.7,0.3-1.1,0.3h-1.8l0.1,0.7H67.7z"/>
	<path class="st0" d="M67.5,48.1c0.1-0.9,0.3-1.7,0.4-2.6l-0.8-0.1C67.2,46.3,67.3,47.2,67.5,48.1z"/>
	<polygon class="st0" points="53.2,20.1 52.1,9 39.9,30.7 47.2,30.7 	"/>
	<polygon class="st0" points="24.6,31.4 16.1,31.4 31.8,45.1 19,67.9 30.1,61.1 39.6,44.3 	"/>
	<path class="st0" d="M55.1,58.6c0.2-0.2,0.4-0.3,0.6-0.3l-0.9-0.8h-2.9c-0.8,0-1.5-0.4-1.9-1c-0.4-0.6-0.4-1.3-0.1-2.1
		c0,0,0.1-0.2,0.2-0.4l0.1-0.2c0-0.1,0.1-0.2,0.1-0.3L49.7,53l-5,3.1l2.6,2.2H54C54.4,58.3,54.7,58.4,55.1,58.6z"/>
	<path class="st0" d="M60.8,58.1c0.3,0,1,0,1.6,0.5c0.3-0.3,0.7-0.4,1-0.5l-0.1-0.7H62c-1,0-1.9-0.8-2.1-1.8c0-0.1,0-0.2-0.1-0.5
		h-1.4c-0.6,1.1-0.6,1.2-0.7,1.2c-0.3,0.5-0.7,0.8-1.3,1l0.9,0.8H60.8z"/>
	<path class="st0" d="M69.1,36.1c-0.5,0-1-0.2-1.4-0.5c-0.4,0.3-0.9,0.5-1.4,0.5H62c-1,0-1.9-0.8-2.1-1.8c0-0.1,0-0.2-0.1-0.5h-1.4
		c-0.6,1.1-0.6,1.2-0.7,1.2c-0.4,0.7-1.1,1.1-2,1.1h-3.9c-0.8,0-1.5-0.4-1.9-1c-0.4-0.6-0.4-1.3-0.1-2.1c0-0.1,0.1-0.3,0.3-0.6
		C55.4,21,57,17.5,57.4,16.6c0.1-0.3,0.6-1.2,1.9-1.1L59,12.1L47.9,31.9h-21L41,44L30,63.8l19.8-12.2l0.9,0.8
		c4.8-10.3,6.3-13.6,6.7-14.5c0.1-0.3,0.6-1.2,1.9-1.1l0,0h4.4c0.8,0,1.9,0.5,2.2,1.7c0,0,0.2,1.2,0.4,2.8l2.3-1.4
		c0.1-0.5,0.1-0.9,0.2-1.2c0.2-1.1,1.2-1.9,2.2-1.9h2.6l1.1-0.7H69.1z"/>
	<path class="st0" d="M177,37.6c-0.4-0.5-1.1-0.8-1.9-0.8H171c-1.1,0-2,0.9-2.2,2.2c0,0.1-0.1,0.4-0.2,1.1c-0.5-1.1-0.7-1.8-0.8-2
		c-0.1-0.2-0.2-0.3-0.4-0.5c-0.4-0.4-1-0.8-1.8-0.8h-4c-0.8,0-1.6,0.5-2,1.3c-0.1,0.2-0.1,0.3-0.2,0.5c-0.1,0.2-0.1,0.4-0.1,0.5l0,0
		c0,0.1-0.2,1.2-0.5,2.7c-0.2,0.9-0.3,2-0.5,3.2c-0.2,1.3-0.5,2.7-0.7,4c-0.2-1.3-0.4-2.7-0.6-4c-0.2-1.1-0.3-2.2-0.5-3.1
		c-0.2-1.4-0.4-2.6-0.5-3.1c0-0.2,0-0.3,0-0.3c-0.2-1.2-1.4-1.7-2.2-1.7h-4.4l0,0c-1.3-0.1-1.8,0.8-1.9,1.1
		c-0.1,0.3-0.3,0.8-0.8,1.7c-0.3,0.7-0.8,1.8-1.4,3.1c-0.4,0.9-0.9,2-1.6,3.4c-0.2,0.5-0.5,1.1-0.8,1.7c-0.2-0.2-0.4-0.4-0.6-0.6
		c0.4-0.1,0.7-0.3,1-0.6c0.2-0.2,0.3-0.4,0.4-0.6c0.2-0.5,0.4-1.1,0.4-1.7c0-0.3-0.1-0.8-0.2-1.4c-0.2-0.8-0.5-1.8-1.1-2.8
		c0,0,0,0,0-0.1c-0.6-1.1-1.6-2.2-3.1-3c-1-0.5-2.2-0.8-3.6-0.8c-0.5,0-1,0-1.5,0.1c-0.1,0-0.1,0-0.2,0c-2.4,0.4-4.2,1.6-5.5,3
		c-0.3,0.3-0.5,0.6-0.8,0.9c0.1-0.5,0.1-0.9,0.2-0.9c0,0,0-0.1,0-0.1c0.1-0.9-0.2-1.5-0.5-1.8c-0.6-0.7-1.5-0.7-1.8-0.7h-4.4
		c-0.8,0-1.5,0.4-1.9,1.1c-0.2,0.4-0.3,0.7-0.4,1c0,0,0,0,0,0c0,0.1-0.1,0.5-0.2,1c-0.2-0.3-0.4-0.6-0.6-0.9c0,0-0.1-0.1-0.1-0.1
		c-1.6-1.7-4.2-2.2-5.3-2.2h-7.7c-0.8,0-1.4,0.3-1.7,0.7c-0.4-0.4-1-0.7-1.6-0.7c0,0-0.1,0-0.1,0H90.7c-0.7,0-1.3,0.3-1.6,0.8
		c0,0,0,0,0,0c-0.3-0.3-0.8-0.7-1.7-0.7h-1h-1.6l0.1-0.7h-0.3l-0.3,0.7h-2.4c-0.3,0-0.6,0.1-0.8,0.2c-0.6,0.3-1.1,0.8-1.3,1.5
		c-0.1,0.1-0.4,0.9-1,2.3c-0.1-1.3-0.2-2-0.2-2.1c-0.1-1.1-1-2-2-2h-0.5h-2.2h-2.6c-1.1,0-2.1,0.8-2.2,1.9c0,0.3-0.1,0.7-0.2,1.2
		c-0.1,0.4-0.2,1-0.2,1.5c-0.1,0.4-0.1,0.9-0.2,1.4l0,0.1c-0.1,0.8-0.3,1.7-0.4,2.6c-0.1,0.8-0.3,1.7-0.4,2.6
		c-0.1-0.9-0.3-1.8-0.4-2.7c-0.2-1-0.3-1.9-0.4-2.8c-0.1-0.4-0.1-0.9-0.2-1.3c-0.3-1.6-0.4-2.8-0.4-2.8c-0.2-1.2-1.4-1.7-2.2-1.7
		h-4.4l0,0c-1.3-0.1-1.8,0.8-1.9,1.1c-0.4,0.9-1.9,4.1-6.7,14.5c-0.2,0.4-0.3,0.7-0.5,1.1c0,0.1-0.1,0.2-0.1,0.3L50,54
		c-0.1,0.2-0.2,0.4-0.2,0.4c-0.3,0.7-0.3,1.5,0.1,2.1c0.4,0.6,1.1,1,1.9,1h2.9h1c0.3,0,0.5,0,0.7-0.1c0.5-0.2,1-0.5,1.3-1
		c0,0,0.1-0.1,0.7-1.2h1.4c0.1,0.3,0.1,0.4,0.1,0.5c0.2,1.1,1,1.8,2.1,1.8h1.3h1.2h0h1.8c0.4,0,0.8-0.1,1.1-0.3
		c0.3,0.2,0.7,0.3,1.1,0.3h3.7c0.2,0,0.4,0,0.7-0.1c0.2,0,0.4-0.1,0.6-0.2c0.1-0.1,0.2-0.1,0.3-0.2c0.4,0.3,0.8,0.4,1.3,0.4h2.8
		c0.6,0,1.1-0.2,1.5-0.5c0.3,0.3,0.8,0.5,1.2,0.5c0,0,0,0,0,0h4c0.6,0,1.2-0.3,1.6-0.8c0,0,0,0,0,0c0.2,0.3,0.7,0.8,1.7,0.8h6.3h5.1
		c0.5,0,0.8-0.1,1.2-0.2c0.2-0.1,0.5-0.2,0.6-0.4c0.4,0.3,0.9,0.5,1.4,0.5h3.9c1.5,0,2.5-0.9,2.7-2.4c0-0.1,0.1-0.4,0.1-0.7
		c0,0.1,0,0.2,0,0.3c-0.1,0.6,0,1.5,0.6,2.2c0.4,0.5,0.9,0.7,1.5,0.7h4.7c0.5,0,0.9-0.2,1.2-0.5c0.4,0.3,0.9,0.5,1.4,0.5h4.3
		c1.2,0,2-0.7,2.3-1.8l0,0c0,0,0.1-0.3,0.4-2.2c0.3,0.7,0.7,1.3,1.1,1.9c0.3,0.3,0.6,0.7,1.1,1.1c0.8,0.7,2,1.3,3.6,1.5
		c0.5,0.1,1,0.1,1.5,0.1c2.6,0,4.9-0.8,6.8-2.4c0,0.3,0.1,0.5,0.3,0.8c0.4,0.6,1.1,1,1.9,1h3.9c0.9,0,1.6-0.4,2-1.1
		c0,0,0.1-0.1,0.7-1.2h1.4c0.1,0.3,0.1,0.4,0.1,0.5c0.2,1.1,1,1.8,2.1,1.8h4.3c0.5,0,1-0.1,1.3-0.4c0.4,0.3,0.8,0.4,1.3,0.4h2.7h1.3
		c1.2,0,2.1-0.9,2.2-2.2c0-0.1,0.1-0.5,0.2-1.2c0.4,1.1,0.6,1.4,0.6,1.5c0.4,1.1,1.4,1.8,2.6,1.8h3.7c1.2,0,2.1-0.8,2.4-2.1
		c0.2-0.8,2.7-15.9,2.7-16C177.6,38.7,177.4,38.1,177,37.6z M177,39.3c0,0.1-2.6,15.3-2.7,16c-0.2,1.1-1,1.8-2,1.8h-3.7
		c-1,0-1.9-0.6-2.2-1.6c-0.1-0.2-0.4-0.9-0.9-2.2l-0.3-0.7l-0.1,0.7c-0.2,1.2-0.3,1.8-0.3,1.9c-0.2,1.1-0.9,1.8-1.8,1.8h-4
		c-0.4,0-0.8-0.1-1.1-0.4l-0.1-0.1l-0.1,0.1c-0.3,0.3-0.7,0.4-1.2,0.4H152c-0.8,0-1.5-0.6-1.6-1.5c0-0.1-0.1-0.3-0.1-0.7l0-0.2h-2
		l-0.1,0.1c-0.7,1.2-0.7,1.3-0.7,1.3c-0.3,0.6-0.9,0.9-1.7,0.9h-3.9c-0.7,0-1.3-0.3-1.6-0.8c-0.2-0.3-0.3-0.6-0.2-1l0-0.5l-0.4,0.4
		c-1.8,1.7-4.2,2.6-6.8,2.6c-3.1,0-4.9-1.4-5.8-2.5c-0.6-0.7-1-1.5-1.3-2.5l-0.3-0.8l-0.1,0.8c-0.4,2.3-0.5,2.9-0.5,2.9l0,0
		c-0.2,0.9-0.9,1.4-1.9,1.4h-4.3c-0.5,0-0.9-0.2-1.2-0.5l-0.2-0.2l-0.2,0.2c-0.3,0.3-0.7,0.5-1.1,0.5h-4.7c-0.5,0-0.9-0.2-1.2-0.6
		c-0.5-0.6-0.6-1.3-0.5-1.8c0.1-0.3,0.4-2.8,0.5-3.4l0-0.1l-0.1-0.1c-0.1-0.1-0.3-0.1-0.4-0.1l-0.2,0l0,0.2
		c-0.1,0.8-0.6,3.5-0.7,3.8c-0.2,1.3-1.1,2.1-2.3,2.1h-3.9c-0.5,0-1-0.2-1.3-0.5l-0.2-0.2l-0.2,0.2c-0.2,0.2-0.4,0.3-0.6,0.4
		c-0.3,0.1-0.6,0.1-1,0.1H88c-0.8,0-1.2-0.4-1.4-0.6c-0.1-0.1-0.1-0.2-0.2-0.3l-0.2-0.4l-0.2,0.4c-0.3,0.5-0.8,0.9-1.4,0.9h-4
		c-0.4,0-0.8-0.2-1.1-0.5l-0.1-0.1l-0.2,0.1c-0.3,0.3-0.8,0.5-1.4,0.5h-2.8c-0.5,0-0.9-0.2-1.2-0.4l-0.1-0.1l-0.1,0.1
		c-0.1,0.1-0.2,0.2-0.3,0.2c-0.4,0.2-0.7,0.2-1.1,0.2h-3.7c-0.3,0-0.7-0.1-1-0.3l-0.1-0.1l-0.1,0.1c-0.3,0.2-0.6,0.3-1,0.3H62
		c-0.8,0-1.5-0.6-1.6-1.5c0-0.1-0.1-0.4-0.1-0.7l0-0.2h-2l-0.1,0.1c-0.7,1.2-0.7,1.3-0.7,1.3C57,56.7,56.5,57,55.7,57h-3.9
		c-0.7,0-1.3-0.3-1.6-0.8c-0.3-0.5-0.3-1.1-0.1-1.7c0,0,0.1-0.2,0.2-0.4l0.1-0.2c5.3-11.4,6.9-14.9,7.3-15.9c0.1-0.2,0.5-1,1.5-0.9
		l0,0l4.5,0c0.6,0,1.6,0.4,1.8,1.4c0,0.1,1,6.1,1.7,10.8l0.2,1.3l0.2-1.3c0.3-2.2,0.7-4.6,1-6.5l0-0.1c0.3-1.8,0.5-3.4,0.6-4.1
		c0.1-0.9,0.9-1.6,1.8-1.6h5.3c0.8,0,1.5,0.7,1.6,1.6c0,0.1,0.1,1.1,0.3,2.9l0.1,0.8l0.3-0.7c0.5-1.3,1.2-2.9,1.3-3.1
		c0.3-0.9,1-1.4,1.7-1.4h5.5c0.7,0,1.1,0.3,1.4,0.6c0,0,0.1,0.1,0.2,0.2l0.2,0.3l0.2-0.3c0.3-0.5,0.8-0.8,1.5-0.8H102
		c0.6,0,1.1,0.3,1.5,0.7l0.2,0.2l0.2-0.2l0,0c0.2-0.3,0.7-0.7,1.5-0.7h7.7c1.1,0,3.6,0.4,5.1,2.1c0.4,0.4,0.6,0.9,0.8,1.4l0.3,0.7
		l0.1-0.8c0.2-1,0.3-1.7,0.3-1.7c0-0.3,0.1-0.6,0.3-0.9c0.3-0.5,0.9-0.9,1.5-0.9h4.4c0.2,0,1,0,1.5,0.6c0.2,0.3,0.5,0.8,0.4,1.6
		c0,0-0.1,0.6-0.3,1.7l-0.2,0.9l0.5-0.8c1.4-2.1,4-4.5,8.1-4.5c3.6,0,5.5,2,6.5,3.6c1,1.7,1.3,3.5,1.3,4.1c0,0.8-0.2,1.5-0.6,2
		c-0.3,0.3-0.7,0.5-1.2,0.5c-0.2,0-2.8,0-4.1,0l0,0c-0.7,0-1.2-0.3-1.6-0.9c-0.2-0.4-0.3-0.8-0.3-1l0-0.1c0-0.2-0.1-0.5-0.2-0.7
		c-0.1-0.1-0.2-0.2-0.4-0.2c-0.6,0-1.4,1.3-1.8,3.5c-0.3,2,0.1,2.7,0.1,2.7l0.1,0.1h0.1c1,0,1.5-1.3,1.5-1.3c0.1-0.4,0.3-0.7,0.5-1
		c0.2-0.3,0.6-0.6,1.4-0.6h4.4c0.5,0,1,0.2,1.3,0.6c0.1,0.1,0.1,0.2,0.2,0.3l0.2,0.4l0.2-0.4c3.3-7.2,4.4-9.6,4.7-10.3
		c0.1-0.2,0.5-1,1.5-0.9l0,0l4.5,0c0.6,0,1.6,0.4,1.8,1.4c0,0.1,1.1,6.9,1.8,11.7l0.2,1.3l0.2-1.3c0.8-4.7,1.8-10.9,1.9-11.1l0,0
		c0-0.2,0.1-0.6,0.3-0.9c0.3-0.7,0.9-1.1,1.6-1.1h4c1.1,0,1.6,0.7,1.9,1.1c0.1,0.1,0.3,0.7,1.1,2.6l0.3,0.7l0.1-0.7
		c0.2-1.1,0.3-1.7,0.3-1.8c0.2-1.1,0.9-1.8,1.8-1.8h4.1c0.7,0,1.3,0.2,1.6,0.6C177,38.2,177.1,38.7,177,39.3z M136.4,47.1
		c-0.6,0.1-1,0.5-1.2,0.8c-0.2,0.3-0.4,0.7-0.5,1.1c0,0-0.4,0.9-1,1c-0.1-0.3-0.2-1,0-2.3c0-0.3,0.1-0.5,0.1-0.7
		c0.4-1.7,1.1-2.4,1.2-2.4c0,0,0.1,0,0.1,0c0.1,0.1,0.1,0.4,0.2,0.6l0,0.1c0.1,0.3,0.1,0.8,0.4,1.2c0.1,0.2,0.2,0.3,0.4,0.5
		C136.2,46.9,136.3,47,136.4,47.1z"/>
	<path class="st0" d="M101.8,46.7c-0.1,0.4-0.1,0.8-0.2,1.2l0,0.1c-0.2,1.1-0.2,1.2-0.2,1.2c-0.1,0.3-0.2,0.6-0.5,0.8l-0.2,0.2
		l0.3,0.1c0.1,0.1,0.2,0.1,0.3,0.2l0.3,0.2l0.1-0.3c0.2-1.2,0.4-2.5,0.6-3.8L101.8,46.7z"/>
	<path class="st0" d="M102.3,43.9c-0.2,0.1-0.4,0.1-0.7,0.1l-0.4,0l0.3,0.3c0,0,0.1,0.1,0.1,0.1c0.3,0.4,0.4,0.8,0.4,1.2l0.4,0
		l0.3-2L102.3,43.9L102.3,43.9z M102.1,44.6c0-0.1-0.1-0.1-0.1-0.2c0.1,0,0.1,0,0.2,0L102.1,44.6z"/>
	<path class="st0" d="M118.5,45.7l-0.6,0.9c-0.2,0.4-0.5,0.7-0.8,1l-0.1,0.1l0.1,0.1c0.2,0.3,0.3,0.6,0.5,1l0.3,0.8l0.1-0.8
		c0.1-0.7,0.2-1.4,0.3-2.1L118.5,45.7z M117.7,48.1c0-0.1-0.1-0.2-0.1-0.2c0.1-0.1,0.1-0.2,0.2-0.2
		C117.8,47.7,117.7,47.9,117.7,48.1z"/>
	<path class="st0" d="M77.6,16.2c-0.4-0.5-1-0.8-1.7-0.8c-0.4,0-4.2,0-4.3,0c-0.9,0-1.4,0.4-1.7,0.7c-0.1,0.1-0.2,0.3-0.3,0.5
		c-0.2,0.4-0.3,0.7-0.3,1c0,0.2-0.2,1-0.4,2.3c-0.2,1-0.3,2.2-0.6,3.5c0,0.3-0.1,0.5-0.1,0.8l0,0.2c-0.2,1.2-0.4,2.5-0.6,3.7
		c-0.2-1.5-0.5-3.1-0.7-4.6c-0.2-1.3-0.4-2.5-0.6-3.6c-0.3-1.6-0.4-2.7-0.4-2.8c0-0.1,0-0.2-0.1-0.3c-0.3-1-1.4-1.5-2.1-1.5h-3.3
		h-1.2l0,0c0,0,0,0,0,0c-1.3-0.1-1.8,0.8-1.9,1.1c-0.4,0.9-2,4.4-7.3,15.9c-0.2,0.3-0.3,0.5-0.3,0.6c-0.3,0.7-0.3,1.5,0.1,2.1
		c0.4,0.6,1.1,1,1.9,1h3.9c0.9,0,1.6-0.4,2-1.1c0,0,0.1-0.1,0.7-1.2h1.4c0.1,0.3,0.1,0.4,0.1,0.5c0.2,1.1,1,1.8,2.1,1.8h4.3
		c0.5,0,1-0.2,1.4-0.5c0.4,0.3,0.9,0.5,1.4,0.5h5.8h2.2h2.5c0.7,0,1.2-0.2,1.6-0.6c0.4,0.4,1,0.6,1.6,0.6h1.7h0.3h6h2.6
		c1.1,0,1.9-0.6,2.3-1.7c0,0,0,0,0-0.1c0.2-0.7,0.6-3.6,0.7-3.7c0.1-0.4,0-0.7-0.1-1.1c-0.1-0.2-0.2-0.4-0.3-0.5
		c-0.6-0.7-1.6-0.8-1.7-0.8h-4c0,0,0-0.1,0-0.1c0.2-1.4,0.5-2.8,0.7-4.2c0.2-1.3,0.4-2.5,0.6-3.5c0.2-1.3,0.4-2.2,0.4-2.4
		c0.1-0.5,0-1.1-0.2-1.5c-0.1-0.1-0.2-0.3-0.3-0.4c-0.4-0.5-1-0.8-1.7-0.8c-0.4,0-4.2,0-4.3,0c-0.9,0-1.4,0.4-1.7,0.7
		c-0.3,0.4-0.5,0.8-0.6,1.2c0,0.1,0,0.2-0.1,0.3c0,0.2-0.3,1.7-0.6,3.8c-0.1,0.8-0.3,1.8-0.4,2.8L82,24.6c0,0.1,0,0.2-0.1,0.3
		c-0.2,1.2-0.4,2.5-0.6,3.6c-0.4-0.2-0.9-0.2-1-0.2h-4c0.2-1.2,0.4-2.4,0.6-3.5c0-0.3,0.1-0.6,0.1-0.8c0-0.1,0-0.2,0-0.3
		c0.2-1.2,0.4-2.3,0.5-3.3c0.1-0.7,0.2-1.2,0.3-1.6c0.1-0.4,0.1-0.6,0.1-0.7c0-0.2,0.1-0.5,0-0.7c0-0.2,0-0.3-0.1-0.5c0,0,0,0,0,0
		C77.9,16.7,77.8,16.4,77.6,16.2z M77.6,18.1c-0.1,0.4-1,5.9-1.7,10.5l0,0.2h4.5c0.1,0,0.6,0,1,0.3l0.3,0.2l0-0.3
		c0.2-1.3,0.5-2.8,0.7-4.2l0.1-0.4c0.5-3.3,1-6.2,1-6.6c0.1-0.4,0.2-0.9,0.5-1.3c0.2-0.3,0.7-0.6,1.4-0.6c0,0,3.8,0,4.3,0
		c0.5,0,1,0.2,1.4,0.6c0.3,0.4,0.5,1,0.4,1.6c-0.1,0.4-1,5.9-1.7,10.5l0,0.2h4.5c0.1,0,0.9,0,1.4,0.6c0.3,0.3,0.4,0.8,0.4,1.3
		c0,0.2-0.5,3.3-0.7,3.7c-0.3,0.9-0.9,1.4-1.9,1.4H82.8c-0.5,0-1.1-0.2-1.4-0.6l-0.2-0.2l-0.2,0.2c-0.3,0.4-0.9,0.6-1.5,0.6H69.1
		c-0.5,0-0.9-0.2-1.2-0.5l-0.1-0.1l-0.1,0.1c-0.3,0.3-0.8,0.5-1.3,0.5H62c-0.8,0-1.5-0.6-1.6-1.5c0-0.1-0.1-0.4-0.1-0.7l0-0.2h-2
		l-0.1,0.1c-0.7,1.2-0.7,1.3-0.7,1.3c-0.3,0.6-0.9,0.9-1.7,0.9h-3.9c-0.7,0-1.3-0.3-1.6-0.8c-0.3-0.5-0.3-1.1-0.1-1.7
		c0-0.1,0.1-0.3,0.3-0.6c5.3-11.4,6.9-14.9,7.3-15.9c0.1-0.2,0.5-1,1.5-0.9l0,0l4.5,0c0.6,0,1.6,0.4,1.8,1.4c0,0.1,1.2,7.4,1.9,12.2
		l0.2,1.3l0.2-1.3c0.2-1.5,0.5-3.3,0.8-5l0-0.2c0.5-3.3,1-6.2,1-6.6c0.1-0.4,0.2-0.9,0.5-1.3c0.2-0.3,0.7-0.6,1.4-0.6
		c0,0,3.8,0,4.3,0c0.5,0,1,0.2,1.4,0.6C77.6,16.9,77.7,17.5,77.6,18.1z"/>
	<path class="st0" d="M156.1,60.6c-1.5-1.5-3.5-2.2-6.1-2.2c-2.5,0-4.7,0.8-6.6,2.3c-0.6,0.5-1.1,1-1.6,1.6c0.2-0.9,0.3-1.5,0.3-1.5
		c0,0,0,0,0,0c0.1-0.6-0.1-1.2-0.5-1.7c-0.3-0.4-0.8-0.6-1.3-0.7c-0.2,0-0.4-0.1-0.6-0.1h-4.1c-0.9,0-1.7,0.7-2.1,1.7
		c0,0.2-0.1,0.3-0.1,0.5c0,0.1-0.1,0.6-0.2,1.1c-0.2-0.5-0.4-0.9-0.5-1.2c-0.2-0.4-0.3-0.7-0.3-0.8c-0.2-0.4-0.7-1.1-1.7-1.3
		c-0.2,0-0.3-0.1-0.5-0.1h-2.8h-1.2c-0.5,0-1,0.2-1.4,0.5c-0.6-0.5-1.3-0.5-1.6-0.5H119c-0.5,0-0.9,0.1-1.3,0.4
		c-0.6-0.4-1.2-0.4-1.4-0.4h-4.4c-0.4,0-1.4,0.1-1.9,1.2c-0.1,0.2-0.2,0.5-0.3,0.9c0,0.1-0.4,2.7-0.7,4h-1.1
		c0.3-1.5,0.5-3.1,0.6-3.3c0.1-0.6,0-1-0.1-1.4c-0.1-0.2-0.2-0.4-0.3-0.6c-0.6-0.7-1.5-0.7-1.8-0.7h-4.4c-0.4,0-1.9,0.1-2.2,2.1
		c0,0,0,0.3-0.1,0.6c-0.9-1.2-2.6-2.5-5.4-2.8c-0.1,0-0.3,0-0.4,0c-2.5-0.1-4.3,0.5-5.6,1.3c-0.4,0.2-0.8,0.5-1.1,0.8
		c0-0.3-0.1-0.5-0.2-0.7c-0.1-0.2-0.2-0.3-0.3-0.5c-0.6-0.7-1.5-0.7-1.8-0.7h-4.4c-0.6,0-1.1,0.2-1.5,0.6c-0.3-0.3-0.7-0.5-1.2-0.6
		c-0.2,0-0.4,0-0.6,0h-4.1c-0.2,0-0.3,0-0.4,0.1c-0.7,0.2-1.4,0.8-1.6,1.6c0,0.2-0.1,0.3-0.1,0.5c0,0.1-0.1,0.4-0.2,1.1
		c-0.3-0.7-0.5-1.2-0.7-1.6c-0.1-0.2-0.1-0.3-0.2-0.4c-0.3-0.5-0.9-1.3-2.2-1.3h-3.1h-0.1h-0.8c-0.1,0-0.2,0-0.3,0
		c-0.4,0.1-0.7,0.2-1,0.5c-0.6-0.5-1.3-0.5-1.6-0.5h-3.4h-1c-0.2,0-0.5,0-0.7,0.1c-0.2,0.1-0.4,0.2-0.6,0.3c-0.3-0.2-0.7-0.3-1-0.3
		h-6.8h-4.5c-1.1,0-1.9,0.7-2.1,1.8c0,0.1-0.2,1.3-0.5,3.1c-0.7,4.2-2.1,12.9-2.2,13.4c-0.1,0.6,0,1.2,0.4,1.6
		c0.2,0.3,0.7,0.8,1.7,0.8h4.3c1.8,0,2.2-1.4,2.2-1.8l0.9-4.7h4c0.3,0,0.5,0,0.7-0.1c-0.4,2.4-0.6,3.7-0.6,3.8
		c-0.1,0.9,0.2,1.5,0.5,1.9c0.4,0.5,1,0.7,1.6,0.7h4.3c0.7,0,1.3-0.2,1.7-0.6c0.4,0.4,0.9,0.6,1.5,0.6h4c1.2,0,2.1-0.9,2.2-2.2
		c0-0.1,0.1-0.5,0.2-1.2c0.4,0.9,0.6,1.4,0.6,1.5c0.4,1.1,1.4,1.8,2.6,1.8h3.7c0.7,0,1.2-0.2,1.7-0.7c0.4,0.4,1,0.7,1.6,0.7H82
		c1.2,0,2-0.7,2.3-1.8l0,0c0,0,0,0,0.1-0.5c1.6,1.8,4.1,2.8,7.2,2.8c2.2,0,4.1-0.6,5.6-1.8c0.1,0.2,0.2,0.4,0.3,0.5
		c0.4,0.5,1,0.7,1.6,0.7h4.3c1.2,0,2-0.7,2.3-1.8l0,0c0-0.1,0-0.1,0.8-4.7h1.2c-0.6,3.6-0.6,3.8-0.6,3.8c-0.1,0.9,0.2,1.5,0.5,1.9
		c0.4,0.5,1,0.7,1.6,0.7h4.3c0.6,0,1.1-0.2,1.5-0.5c0.4,0.3,0.8,0.5,1.4,0.5h4.3c0.7,0,1.2-0.2,1.7-0.6c0.4,0.4,0.9,0.6,1.5,0.6h4
		c1.2,0,2.1-0.9,2.2-2.2c0-0.1,0.1-0.5,0.2-1.2c0.4,0.9,0.6,1.4,0.6,1.5c0.4,1.1,1.4,1.8,2.6,1.8h3.7c1.2,0,2.1-0.8,2.4-2.1
		c0-0.1,0.1-0.5,0.2-1.2c0.7,1.5,1.9,2.6,3.4,3.4c1.2,0.6,2.5,0.9,3.8,0.9c1.2,0,2.4-0.3,3.6-0.8c0.3,0.3,0.7,0.5,1.4,0.5h2.3
		c0.4,0,1.7-0.1,2.1-1.8c0.1-0.4,1.7-8,1.7-8.4c0,0,0-0.1,0-0.1l0,0c0.1-0.4,0.3-1.2-0.2-1.9c0.3-0.4,0.4-0.8,0.4-1.3
		c0-0.3,0-1-0.2-1.9c-0.2-0.9-0.6-2-1.4-3C156.5,61,156.3,60.8,156.1,60.6z M157.8,66.1c0,0.4-0.1,0.8-0.4,1.1l-0.1,0.1l0.1,0.1
		c0.5,0.6,0.3,1.3,0.2,1.7l0,0c0,0,0,0.1,0,0.1c-0.1,0.4-1.6,8-1.7,8.4c-0.3,1.3-1.4,1.4-1.7,1.4h-2.3c-0.6,0-1-0.3-1.2-0.5
		l-0.1-0.1l-0.1,0.1c-1.2,0.6-2.4,0.9-3.6,0.9c-1.2,0-2.5-0.3-3.6-0.9c-1.6-0.8-2.8-2.1-3.5-3.8l-0.3-0.7l-0.1,0.7
		c-0.2,1.1-0.3,1.7-0.3,1.8c-0.2,1.1-1,1.8-2,1.8h-3.7c-1,0-1.9-0.6-2.2-1.6c-0.1-0.2-0.4-0.9-0.9-2.2l-0.3-0.7l-0.1,0.7
		c-0.2,1.2-0.3,1.8-0.3,1.9c-0.2,1.1-0.9,1.8-1.8,1.8h-4c-0.5,0-1-0.2-1.3-0.6c0,0,0,0,0,0l-0.2-0.2l-0.2,0.2
		c-0.3,0.4-0.9,0.6-1.5,0.6h-4.3c-0.5,0-0.9-0.2-1.2-0.5l-0.1-0.1l-0.1,0.1c-0.3,0.3-0.8,0.5-1.4,0.5h-4.3c-0.5,0-1-0.2-1.3-0.6
		c-0.2-0.3-0.5-0.8-0.4-1.6c0-0.1,0-0.2,0.7-4.1l0-0.2h-2l0,0.2c-0.8,4.7-0.8,4.8-0.8,4.8l0,0c-0.2,0.9-0.9,1.4-1.9,1.4H99
		c-0.5,0-1-0.2-1.3-0.6c-0.2-0.2-0.3-0.4-0.4-0.7l-0.1-0.3l-0.2,0.2c-1.5,1.2-3.4,1.8-5.6,1.8c-3.1,0-5.6-1.1-7.1-3l-0.3-0.4
		L84,76.1c-0.1,0.7-0.2,0.9-0.2,0.9l0,0c-0.2,0.9-0.9,1.4-1.9,1.4h-4.3c-0.5,0-1-0.2-1.3-0.6c0,0-0.1-0.1-0.1-0.1l-0.2-0.2L76,77.7
		c-0.4,0.5-0.9,0.7-1.5,0.7h-3.7c-1,0-1.9-0.6-2.2-1.6c-0.1-0.2-0.4-0.9-0.9-2.2L67.4,74l-0.1,0.7c-0.2,1.2-0.3,1.8-0.3,1.9
		c-0.2,1.1-0.9,1.8-1.8,1.8h-4c-0.5,0-1-0.2-1.3-0.6c0,0,0,0,0,0l-0.2-0.2l-0.2,0.2c-0.3,0.4-0.9,0.7-1.5,0.7h-4.3
		c-0.5,0-1-0.2-1.3-0.6c-0.2-0.3-0.5-0.8-0.4-1.6c0-0.1,0.1-0.9,0.7-4.1l0.1-0.3L52.4,72c-0.2,0.1-0.5,0.1-0.9,0.1h-4.3l-0.9,5.1
		c-0.1,0.4-0.4,1.4-1.8,1.4H40c-0.8,0-1.2-0.4-1.4-0.6c-0.3-0.3-0.4-0.8-0.3-1.3c0,0,0,0,0,0l0,0l0,0l0,0c0.1-0.7,1.5-9.3,2.2-13.4
		c0.3-1.8,0.5-3,0.5-3.1c0.1-0.9,0.8-1.5,1.7-1.5H54c0.3,0,0.7,0.1,1,0.3l0.1,0.1l0.1-0.1c0.3-0.3,0.7-0.4,1.2-0.4h4.4
		c0.3,0,0.9,0,1.4,0.5l0.2,0.2l0.2-0.2c0.3-0.3,0.8-0.5,1.2-0.5h4c1.1,0,1.6,0.7,1.9,1.1c0.1,0.1,0.3,0.7,1.1,2.6L71,63l0.1-0.7
		c0.2-1.1,0.3-1.7,0.3-1.8c0.2-1.1,0.9-1.8,1.8-1.8h4.1c0.7,0,1.2,0.2,1.6,0.6l0.2,0.2l0.2-0.2c0.3-0.4,0.8-0.6,1.4-0.6h4.4
		c0.2,0,1,0,1.5,0.6c0.2,0.3,0.5,0.7,0.4,1.4l-0.1,0.6l0.4-0.4c0,0,0.1-0.1,0.1-0.1c1.2-1.1,3.2-2.4,6.6-2.2c3,0.1,4.7,1.6,5.6,2.9
		c0,0,0.1,0.1,0.1,0.1l0.3,0.4l0.1-0.5c0.1-0.7,0.2-1,0.2-1c0.3-1.6,1.4-1.7,1.8-1.7h4.4c0.2,0,1,0,1.5,0.6c0.2,0.3,0.5,0.8,0.4,1.6
		c0,0.2-0.2,1.4-0.6,3.6l0,0.2h2l0-0.2c0.4-2.5,0.7-4,0.7-4.1c0.3-1.6,1.5-1.7,1.8-1.7h4.4c0.2,0,0.8,0,1.3,0.4l0.1,0.1l0.1-0.1
		c0.3-0.3,0.7-0.4,1.2-0.4h4.4c0.2,0,0.9,0,1.4,0.5l0.2,0.2l0.2-0.2c0.3-0.3,0.8-0.5,1.2-0.5h4c1.1,0,1.6,0.7,1.9,1.1
		c0.1,0.1,0.3,0.7,1.1,2.6l0.3,0.7l0.1-0.7c0.2-1.2,0.3-1.7,0.3-1.8c0.2-1.1,0.9-1.8,1.8-1.8h4.1c0.7,0,1.3,0.2,1.6,0.6
		c0.3,0.4,0.5,0.9,0.4,1.4c0,0-0.1,0.9-0.4,2.3l-0.1,0.9l0.5-0.7c0.1-0.1,0.2-0.2,0.3-0.4c2-2.6,4.8-4,8-4c2.5,0,4.4,0.7,5.8,2.1
		C157.8,62.9,157.8,65.6,157.8,66.1L157.8,66.1L157.8,66.1z"/>
	<path class="st0" d="M97.6,66.8c0.3,0.2,0.6,0.5,0.9,0.7l0.3,0.3l0.2-1.4h-2L97.6,66.8z M98.5,66.8l0,0.1c-0.1,0-0.1-0.1-0.2-0.1
		H98.5z"/>
	<path class="st0" d="M147.7,70.7l0-0.1c0.3-1.7,0.4-2,0.4-2.2l0,0c0.2-1.1,1-1.4,1.7-1.4h0.9l-0.1-0.3c0-0.1-0.1-0.3-0.1-0.5l0-0.1
		l0,0c-0.1-0.2-0.4-0.6-0.9-0.6c0,0,0,0,0,0c-0.2,0-1.5,0.1-2.3,2.7c-0.6,2-0.5,3.6,0,4.2c0,0,0,0,0,0l0.9,1.1l-0.5-1.3
		c-0.1-0.3-0.1-0.6-0.1-1C147.6,71.3,147.6,71,147.7,70.7z M147.3,70.5l0,0.1c0,0.1,0,0.2-0.1,0.3c0-0.7,0.1-1.6,0.4-2.5
		c0.7-2.4,1.8-2.4,1.9-2.4l0,0c0.4,0,0.5,0.3,0.5,0.3l0,0c0,0.1,0,0.2,0.1,0.2h-0.3c-0.8,0-1.8,0.5-2.1,1.8
		C147.7,68.4,147.7,68.8,147.3,70.5z"/>
	<path class="st0" d="M90.9,72.4c0.1,0,0.1,0,0.2,0.1l0.1-0.4c-0.1,0-0.1,0-0.2-0.1l0,0h0l-0.8-0.2l0.6,0.6L90.9,72.4L90.9,72.4z"/>
	<path class="st0" d="M85,70.6h2.4l-0.5-0.4c-0.5-0.4-0.9-0.8-1.3-1.2l-0.3-0.4L85,70.6z M85.6,69.6c0.2,0.2,0.4,0.4,0.6,0.6h-0.7
		L85.6,69.6z"/>
	<path class="st0" d="M116.5,49.8c-0.3-1.5-1.3-2.3-1.3-2.3c1.2-0.6,2.4-1.9,2.7-5c0.4-3.1-3.4-4.1-4.9-4.1c-1.5,0-7.2,0-7.7,0
		c-0.5,0-0.5,0.2-0.6,0.8c-0.1,0.6-2.5,15.3-2.6,15.6c0,0.3-0.1,0.9,0.4,0.9c0,0,3.1,0,3.9,0s1-0.4,1-1c0.1-0.5,0.9-5,0.9-5
		c2.7-0.6,3.1,1,3,1.5c0,0.5-0.4,3.2-0.5,3.5c0,0.3,0.1,0.9,0.4,0.9c0.4,0,4.5,0,4.7,0c0.2,0,0.4-0.8,0.3-0.9
		c-0.1-0.2-0.1,0.1-0.3-0.4C116,54.1,116.8,51.3,116.5,49.8z M112.7,44.3c-0.4,1.7-3.7,1.2-3.7,1.2c0-0.1,0.2-1.7,0.4-2.6
		c0,0,1-0.1,1.2-0.1C110.9,42.8,113,42.7,112.7,44.3z"/>
	<path class="st0" d="M125.8,38.5c-0.3,0-4.4,0-4.4,0c-0.4,0-0.5,0.4-0.6,0.7c-0.1,0.3-2.6,15.6-2.6,16c-0.1,0.4,0.1,0.7,0.4,0.7
		c0.4,0,3.7,0,4.3,0c0.6,0,0.6-0.3,0.6-0.5c0-0.2,2.7-15.4,2.8-16.1C126.5,38.5,126.1,38.5,125.8,38.5z"/>
	<path class="st0" d="M60.8,59.8c-0.3,0-4.4,0-4.4,0c-0.4,0-0.5,0.4-0.6,0.7c-0.1,0.3-2.6,15.6-2.6,16c-0.1,0.4,0.1,0.7,0.4,0.7
		c0.4,0,3.7,0,4.3,0c0.6,0,0.6-0.3,0.6-0.5c0-0.2,2.7-15.4,2.8-16.1C61.5,59.9,61.1,59.8,60.8,59.8z"/>
	<path class="st0" d="M84.9,59.8c-0.3,0-4.4,0-4.4,0c-0.4,0-0.5,0.4-0.6,0.7s-2.6,15.6-2.6,16c-0.1,0.4,0.1,0.7,0.4,0.7
		c0.4,0,3.7,0,4.3,0c0.6,0,0.6-0.3,0.6-0.5c0-0.2,2.7-15.4,2.8-16.1C85.5,59.9,85.1,59.8,84.9,59.8z"/>
	<path class="st0" d="M123.3,59.8c-0.3,0-4.4,0-4.4,0c-0.4,0-0.5,0.4-0.6,0.7s-2.6,15.6-2.6,16c-0.1,0.4,0.1,0.7,0.4,0.7
		c0.4,0,3.7,0,4.3,0c0.6,0,0.6-0.3,0.6-0.5c0-0.2,2.7-15.4,2.8-16.1C124,59.9,123.6,59.8,123.3,59.8z"/>
	<path class="st0" d="M141.3,48.7c-0.3,0-4,0-4.4,0c-0.3,0-0.4,0.1-0.6,0.8c-0.2,0.7-1.1,2.2-2.8,2.2s-1.9-2.1-1.6-4.3
		c0.4-2.2,1.4-4.6,3-4.6c1.7,0,1.8,1.6,1.9,2.1c0.1,0.5,0.2,0.8,0.6,0.8c0,0,3.8,0,4.1,0c0.3,0,0.5-0.5,0.5-1.1
		c0-0.6-0.8-6.4-6.5-6.4c-5.7,0-8.4,5.6-9.1,8.4c-0.6,2.9-0.6,9.9,6.1,9.9c6.7,0,8.5-6.1,8.7-6.6C141.7,49.3,141.6,48.7,141.3,48.7z
		"/>
	<path class="st0" d="M175.1,38.5c-0.2,0-3.8,0-4.1,0c-0.2,0-0.4,0.4-0.5,0.7c-0.1,0.4-1.1,7.2-1.1,7.2s-2.8-7.1-3.1-7.5
		c-0.2-0.4-0.6-0.4-0.8-0.4s-4,0-4,0c-0.4,0-0.5,0.6-0.6,1c-0.1,0.3-2.4,14.4-2.5,15.1c-0.1,0.7,0.1,1.2,0.5,1.2c0.4,0,3.7,0,4,0
		c0.4,0,0.5-0.5,0.6-0.7c0-0.3,1.2-7,1.2-7s2.7,6.4,2.9,7c0.2,0.6,0.6,0.7,1,0.7c0.4,0,3.4,0,3.7,0s0.6-0.1,0.8-0.8
		c0.1-0.6,2.6-15.4,2.7-15.9C175.9,38.5,175.2,38.5,175.1,38.5z"/>
	<path class="st0" d="M139.7,59.9c-0.2,0-3.8,0-4.1,0c-0.2,0-0.4,0.4-0.5,0.7c-0.1,0.4-1.1,7.2-1.1,7.2s-2.8-7.1-3.1-7.5
		s-0.6-0.4-0.8-0.4s-4,0-4,0c-0.4,0-0.5,0.6-0.6,1c-0.1,0.3-2.4,14.4-2.5,15.1c-0.1,0.7,0.1,1.2,0.5,1.2c0.4,0,3.7,0,4,0
		s0.5-0.5,0.6-0.7c0-0.3,1.2-7,1.2-7s2.7,6.4,2.9,7c0.2,0.6,0.6,0.7,1,0.7c0.4,0,3.4,0,3.7,0c0.3,0,0.6-0.1,0.8-0.8
		c0.1-0.6,2.6-15.4,2.7-15.9C140.6,59.9,139.9,59.9,139.7,59.9z"/>
	<path class="st0" d="M77.2,59.9c-0.2,0-3.8,0-4.1,0s-0.4,0.4-0.5,0.7c-0.1,0.4-1.1,7.2-1.1,7.2s-2.8-7.1-3.1-7.5
		c-0.2-0.4-0.6-0.4-0.8-0.4c-0.2,0-4,0-4,0c-0.4,0-0.5,0.6-0.6,1c-0.1,0.3-2.4,14.4-2.5,15.1c-0.1,0.7,0.1,1.2,0.5,1.2
		c0.4,0,3.7,0,4,0c0.4,0,0.5-0.5,0.6-0.7c0-0.3,1.2-7,1.2-7s2.7,6.4,2.9,7c0.2,0.6,0.6,0.7,1,0.7c0.4,0,3.4,0,3.7,0
		c0.3,0,0.6-0.1,0.8-0.8c0.1-0.6,2.6-15.4,2.7-15.9C78,59.9,77.4,59.9,77.2,59.9z"/>
	<path class="st0" d="M116.2,59.8c-0.3,0-4.4,0-4.4,0c-0.4,0-0.5,0.4-0.6,0.7c0,0.1-0.4,2.5-0.9,5.4h-4.6c0.5-2.8,0.9-5.1,0.9-5.3
		c0.1-0.7-0.3-0.7-0.6-0.7s-4.4,0-4.4,0c-0.4,0-0.5,0.4-0.6,0.7s-2.6,15.6-2.6,16c-0.1,0.4,0.1,0.7,0.4,0.7c0.4,0,3.7,0,4.3,0
		c0.6,0,0.6-0.3,0.6-0.5c0-0.1,0.5-2.8,1-6h4.6c-0.5,3-0.9,5.6-0.9,5.8c-0.1,0.4,0.1,0.7,0.4,0.7s3.7,0,4.3,0c0.6,0,0.6-0.3,0.6-0.5
		c0-0.2,2.7-15.4,2.8-16.1C116.9,59.9,116.5,59.8,116.2,59.8z"/>
	<path class="st0" d="M93.2,66.4c-1.4-0.4-2.2-0.8-2.2-1.6c0-0.7,0.5-1.3,1.6-1.3c1.2,0,1.5,0.4,1.9,1.2c0.1,0.2,0.3,0.3,0.7,0.3
		c0.3,0,3.2,0,3.5,0c0.3,0,0.6-0.1,0.6-0.3c0.1-0.2-0.6-4.8-5.7-5.1c-5.1-0.2-7.3,3.2-7.7,5.9c-0.4,2.7,1.9,4.1,4.1,4.8
		c2.2,0.6,3.3,0.8,3.6,1.7c0.2,0.8-0.9,1.7-1.8,1.7c-1.7,0-2-0.4-2.4-1.1c-0.2-0.4-0.1-0.7-0.5-0.7c-0.4,0-3.7,0-3.9,0
		c-0.2,0-0.8-0.1-0.6,1.1c0.3,2,2.2,4.7,7.1,4.7c4.9,0,7.2-3.6,7.1-6.7C98.5,67.5,94.6,66.8,93.2,66.4z"/>
	<path class="st0" d="M63.8,17.1c-0.1,0-4.3,0-4.5,0c-0.2,0-0.3-0.1-0.4,0.1c-1,2.3-7.4,16-7.6,16.5c-0.3,0.5,0.2,0.6,0.5,0.6
		c0.3,0,3.5,0,3.9,0s0.5-0.2,0.6-0.3c0-0.1,1.1-2,1.1-2h3.8c0,0,0.3,1.6,0.4,1.9c0.1,0.3,0.3,0.4,0.4,0.4c0.1,0,3.9,0,4.3,0
		c0.4,0,0.6-0.3,0.5-0.6c0-0.3-2.5-16.1-2.5-16.3C64.3,17.3,63.9,17.1,63.8,17.1z M58.8,28.2l1.8-4.3l0.5,4.3H58.8z"/>
	<path class="st0" d="M63.8,38.5c-0.1,0-4.3,0-4.5,0c-0.2,0-0.3-0.1-0.4,0.1c-1,2.3-7.4,16-7.6,16.5c-0.3,0.5,0.2,0.6,0.5,0.6
		c0.3,0,3.5,0,3.9,0s0.5-0.2,0.6-0.3c0-0.1,1.1-2,1.1-2h3.8c0,0,0.3,1.6,0.4,1.9c0.1,0.3,0.3,0.4,0.4,0.4c0.1,0,3.9,0,4.3,0
		c0.4,0,0.6-0.3,0.5-0.6c0-0.3-2.5-16.1-2.5-16.3C64.3,38.6,63.9,38.5,63.8,38.5z M58.8,49.5l1.8-4.3l0.5,4.3H58.8z"/>
	<path class="st0" d="M153.8,38.5c-0.1,0-4.3,0-4.5,0c-0.2,0-0.3-0.1-0.4,0.1c-1,2.3-7.4,16-7.6,16.5c-0.3,0.5,0.2,0.6,0.5,0.6
		c0.3,0,3.5,0,3.9,0c0.4,0,0.5-0.2,0.6-0.3c0-0.1,1.1-2,1.1-2h3.8c0,0,0.3,1.6,0.4,1.9c0.1,0.3,0.3,0.4,0.4,0.4s3.9,0,4.3,0
		c0.4,0,0.6-0.3,0.5-0.6c0-0.3-2.5-16.1-2.5-16.3C154.3,38.6,153.9,38.5,153.8,38.5z M148.8,49.5l1.8-4.3l0.5,4.3H148.8z"/>
	<path class="st0" d="M75.9,17.1c-0.4,0-4.3,0-4.3,0c-0.3,0-0.5,0.1-0.6,0.8c-0.1,0.7-2.4,15.2-2.5,15.7c-0.1,0.5,0.2,0.8,0.6,0.8
		s10.2,0,10.6,0c0.4,0,0.5-0.1,0.6-0.4c0.1-0.3,0.6-3.2,0.6-3.5c0.1-0.3-0.4-0.4-0.5-0.4s-6,0-6,0s1.9-12,2-12.2
		C76.4,17.6,76.4,17.1,75.9,17.1z"/>
	<path class="st0" d="M82.8,34.4c0.4,0,10.2,0,10.6,0c0.4,0,0.5-0.1,0.6-0.4c0.1-0.3,0.6-3.2,0.6-3.5c0.1-0.3-0.4-0.4-0.5-0.4
		c-0.1,0-6,0-6,0s1.9-12,2-12.2c0.1-0.3,0-0.7-0.5-0.7s-4.3,0-4.3,0c-0.3,0-0.5,0.1-0.6,0.8c-0.1,0.7-2.4,15.2-2.5,15.7
		C82.2,34.1,82.5,34.4,82.8,34.4z"/>
	<path class="st0" d="M87.4,38.5c-0.1,0-5.2,0-5.5,0s-0.4,0.3-0.5,0.5c-0.1,0.3-3.5,8.5-3.5,8.5s-0.9-8.3-1-8.6
		c0-0.3-0.2-0.5-0.4-0.5s-5.1,0-5.3,0c-0.3,0-0.5,0.2-0.6,0.5c-0.4,2.4-2.5,15.6-2.6,16c-0.1,0.4,0,0.8,0.4,0.8c0.4,0,3.2,0,3.7,0
		c0.5,0,0.6-0.1,0.6-0.3c0.1-0.2,1.1-6.7,1.1-6.7s0.7,6.3,0.7,6.6c0,0.3,0.1,0.4,0.4,0.4c0.3,0,2.5,0,2.8,0c0.3,0,0.6,0,0.7-0.4
		c0.2-0.4,2.8-6.9,2.8-6.9s-0.9,6.4-0.9,6.7c0,0.3,0,0.6,0.2,0.6c0.2,0,3.8,0,4,0s0.3-0.2,0.3-0.3c0-0.1,2.7-16,2.8-16.5
		C87.9,38.5,87.5,38.5,87.4,38.5z"/>
	<path class="st0" d="M100,51.5c-0.2,0-4.4,0-6.4,0l0.4-2.3h5.4c0.5,0,0.7-0.1,0.7-0.2c0-0.1,0.5-3.1,0.6-3.4
		c0.1-0.3-0.3-0.6-0.6-0.6c-0.2,0-3.1,0-5.2,0l0.4-2.3h6.1c0.5,0,0.7-0.1,0.7-0.2c0-0.1,0.5-3.1,0.6-3.4c0.1-0.3-0.3-0.6-0.6-0.6
		c-0.2,0-3.8,0-6,0c-0.3,0-0.5,0-0.7,0c-0.5,0-0.9,0-0.9,0c-1.3,0-3.6,0-3.7,0c-0.1,0-0.4,0-0.4,0.4c-0.1,0.4-2.6,16.4-2.7,16.6
		c0,0.2,0.1,0.3,0.4,0.3c0.2,0,1.2,0,2.2,0H92h7.4c0.5,0,0.7-0.1,0.7-0.2c0-0.1,0.5-3.1,0.6-3.4C100.7,51.9,100.3,51.5,100,51.5z"/>
	<path class="st0" d="M52.1,66.6c-0.2,0-3.1,0-5.2,0l0.4-2.3h6.1c0.5,0,0.7-0.1,0.7-0.2c0-0.1,0.5-3.1,0.6-3.4
		c0.1-0.3-0.3-0.6-0.6-0.6c-0.2,0-3.8,0-6,0c-0.3,0-0.5,0-0.7,0c-0.5,0-0.9,0-0.9,0c-1.3,0-3.6,0-3.7,0c-0.1,0-0.4,0-0.4,0.4
		c-0.1,0.4-2.6,16.4-2.7,16.6c0,0.2,0.1,0.3,0.4,0.3c0.3,0,4,0,4,0h0.3c0.3,0,0.5-0.1,0.6-0.4c0-0.1,0-0.1,0-0.1l0-0.1
		c0,0,0,0,0-0.1l0-0.1c0,0,0,0,0,0c0,0,0,0,0-0.1l0,0c0,0,0,0,0,0l1.1-5.7h5.4c0.5,0,0.7-0.1,0.7-0.2c0-0.1,0.5-3.1,0.6-3.4
		C52.8,66.9,52.4,66.6,52.1,66.6z"/>
	<path class="st0" d="M151.7,65.8c0.2,0.7,0.2,0.7,0.4,0.7c0,0,3.6-0.1,4-0.1c0.4,0,0.3-0.3,0.3-0.4c0-0.1,0.3-6.1-6.5-6.1
		c-6.8,0-8.9,6.7-9.2,7.8c-0.3,1.2-1.6,7.2,3,9.5c4.6,2.3,8-1.4,8-1.3c0,0.1-0.1,1-0.2,1.3s0.1,0.4,0.3,0.4c0.2,0,2.1,0,2.3,0
		c0.3,0,0.4-0.2,0.4-0.5c0.1-0.3,1.6-7.9,1.7-8.3c0.1-0.4,0.3-0.9-0.2-0.9c-0.4,0-6,0-6.3,0c-0.4,0-0.4,0.3-0.4,0.4
		c0,0.1-0.6,2.7-0.6,3c0,0.2,0,0.4,0.2,0.4c0.2,0,2.2,0,2.2,0s-1.1,2.1-3.3,2.1c-2.2,0-2.9-2.9-1.9-6.2c1.1-3.3,2.9-3.6,3.6-3.6
		C150.8,64.3,151.6,65.2,151.7,65.8z"/>
	<path class="st0" d="M39.2,82.8c0.2-0.6,0.1-1.2-0.1-1.7c-0.3-0.5-0.8-0.7-1.6-0.7c-0.9,0-1.8,0.4-2.6,1.1
		c-0.7,0.7-1.3,1.6-1.7,2.7c-0.5,1.4-0.6,2.5-0.2,3.2c0.3,0.5,0.8,0.8,1.5,0.8c0.8,0,1.6-0.3,2.3-1c0.6-0.5,1.1-1.2,1.4-2h-0.8
		c-0.3,0.5-0.5,0.9-0.8,1.2c-0.5,0.6-1.1,0.9-1.7,0.9c-0.7,0-1.1-0.3-1.2-0.8c-0.1-0.5-0.1-1.2,0.2-2.1c0.4-1.1,0.8-1.9,1.4-2.4
		c0.6-0.5,1.1-0.8,1.7-0.8c0.5,0,0.8,0.1,1,0.4c0.2,0.3,0.2,0.7,0.2,1.1H39.2z"/>
	<path class="st0" d="M45.1,80.6l-1.6,4.6c-0.2,0.5-0.4,1-0.7,1.3c-0.5,0.6-1,0.9-1.8,0.9c-0.6,0-0.9-0.3-1-0.8c0-0.4,0-0.8,0.2-1.3
		l1.6-4.6h-0.8l-1.5,4.2c-0.3,0.9-0.5,1.6-0.4,2.1c0.1,0.9,0.6,1.3,1.6,1.3c1,0,1.9-0.4,2.6-1.3c0.4-0.5,0.7-1.2,1-2.1l1.5-4.2H45.1
		z"/>
	<path class="st0" d="M49.5,80.4c-0.7,0-1.3,0.2-1.9,0.6c-0.5,0.4-0.9,1-1.2,1.6c-0.2,0.6-0.2,1.1,0.1,1.4c0.2,0.2,0.5,0.3,1,0.5
		l0.8,0.2c0.4,0.1,0.7,0.3,0.8,0.4c0.2,0.2,0.2,0.5,0,0.9C49,86.6,48.6,87,48,87.2c-0.3,0.1-0.6,0.2-0.9,0.2c-0.7,0-1.1-0.2-1.2-0.7
		c-0.1-0.3,0-0.6,0.1-1h-0.8c-0.3,0.8-0.3,1.4,0,1.9c0.3,0.5,0.8,0.7,1.6,0.7c0.7,0,1.3-0.2,1.9-0.5c0.6-0.4,1.1-0.9,1.4-1.8
		c0.2-0.7,0.2-1.2-0.1-1.5c-0.2-0.2-0.4-0.4-0.8-0.5l-0.8-0.2c-0.5-0.2-0.9-0.3-1-0.4c-0.2-0.2-0.2-0.4-0.1-0.8
		c0.1-0.3,0.3-0.6,0.6-0.9c0.3-0.2,0.7-0.4,1.2-0.4c0.6,0,1,0.2,1.1,0.6c0.1,0.2,0,0.5-0.1,0.9H51c0.3-0.8,0.3-1.4,0-1.8
		C50.6,80.6,50.1,80.4,49.5,80.4z"/>
	<polygon class="st0" points="57.5,80.6 52.5,80.6 52.2,81.5 54.2,81.5 51.9,88 52.8,88 55.1,81.5 57.2,81.5 	"/>
	<path class="st0" d="M62.8,81.6c-0.2-0.8-0.9-1.3-2-1.3c-1,0-2,0.5-2.8,1.4c-0.7,0.7-1.2,1.6-1.5,2.6c-0.4,1.1-0.5,2-0.2,2.8
		c0.3,0.8,0.9,1.1,1.8,1.1c1,0,2-0.4,2.8-1.3c0.7-0.7,1.3-1.7,1.7-2.8C62.9,83.1,63,82.3,62.8,81.6z M61.7,84.2
		c-0.3,0.8-0.7,1.6-1.3,2.2c-0.6,0.6-1.2,1-1.9,1c-0.8,0-1.2-0.3-1.4-0.8c-0.1-0.6-0.1-1.3,0.2-2.1c0.4-1,0.8-1.8,1.4-2.3
		c0.6-0.5,1.2-0.8,1.8-0.8c0.7,0,1.1,0.3,1.3,0.8C62,82.6,62,83.3,61.7,84.2z"/>
	<path class="st0" d="M65.5,86.8l0.4-6.3h-1.2L62.2,88H63l1.5-4.4c0.1-0.2,0.2-0.4,0.3-0.8c0.1-0.4,0.2-0.6,0.3-0.8l0.1-0.2L64.7,88
		h0.8l4-6.3c-0.1,0.4-0.3,0.8-0.4,1.1c-0.1,0.4-0.2,0.6-0.3,0.8L67.3,88h0.8l2.6-7.4h-1.2L65.5,86.8z"/>
	<path class="st0" d="M79,80.6l-4,6.3l0.4-6.3h-1.2L71.7,88h0.8l1.5-4.4c0.1-0.2,0.2-0.4,0.3-0.8c0.1-0.4,0.2-0.6,0.3-0.8l0.1-0.2
		L74.3,88h0.8l4-6.3c-0.1,0.4-0.3,0.8-0.4,1.1c-0.1,0.4-0.2,0.6-0.3,0.8L76.8,88h0.8l2.6-7.4H79z"/>
	<polygon class="st0" points="79,88 83.6,88 83.9,87.1 80.1,87.1 81,84.6 84.4,84.6 84.7,83.7 81.3,83.7 82.1,81.5 85.8,81.5 
		86.1,80.6 81.6,80.6 	"/>
	<polygon class="st0" points="91.4,81.5 91.7,80.6 86.7,80.6 86.4,81.5 88.5,81.5 86.2,88 87.1,88 89.4,81.5 	"/>
	<path class="st0" d="M88.7,88h0.9l1.4-2.2h2.4L93.3,88h0.9l0.4-7.4h-0.9L88.7,88z M93.5,85h-1.9l2.1-3.3L93.5,85z"/>
	<path class="st0" d="M132.4,88h0.9l1.4-2.2h2.4L137,88h0.9l0.4-7.4h-0.9L132.4,88z M137.2,85h-1.9l2.1-3.3L137.2,85z"/>
	<polygon class="st0" points="98.4,80.6 97.6,80.6 95,88 99,88 99.3,87.1 96.2,87.1 	"/>
	<polygon class="st0" points="107.3,83.7 104.3,83.7 105.1,81.5 108.5,81.5 108.8,80.6 104.6,80.6 102,88 102.8,88 104,84.6 
		107,84.6 	"/>
	<path class="st0" d="M106.1,88h0.9l1.4-2.2h2.4l-0.2,2.2h0.9l0.4-7.4h-0.9L106.1,88z M110.9,85H109l2.1-3.3L110.9,85z"/>
	<path class="st0" d="M117.4,84c0.3-0.1,0.5-0.3,0.6-0.4c0.3-0.3,0.6-0.7,0.7-1.2c0.1-0.4,0.2-0.8,0.1-1.1c-0.1-0.5-0.5-0.8-1.3-0.8
		H115l-2.6,7.4h2.6c0.8,0,1.5-0.3,2.1-0.9c0.4-0.4,0.7-0.8,0.8-1.3c0.2-0.6,0.2-1,0.1-1.3C117.9,84.3,117.7,84.1,117.4,84z
		 M115.5,81.4h1.5c0.4,0,0.6,0,0.8,0.1c0.3,0.2,0.3,0.5,0.1,1c-0.2,0.5-0.4,0.8-0.8,1c-0.2,0.1-0.5,0.2-0.9,0.2h-1.5L115.5,81.4z
		 M117.1,85.8c-0.1,0.3-0.3,0.6-0.5,0.8c-0.3,0.4-0.8,0.5-1.3,0.5h-1.8l0.9-2.6h1.7c0.4,0,0.6,0.1,0.8,0.2
		C117.2,84.9,117.3,85.2,117.1,85.8z"/>
	<path class="st0" d="M125,82.6c0.3-0.9,0.2-1.4-0.3-1.8c-0.2-0.2-0.6-0.2-1.1-0.2h-2.9l-2.6,7.4h0.8l1.1-3.2h1.9
		c0.3,0,0.6,0,0.7,0.1c0.2,0.2,0.3,0.5,0.1,1l-0.4,1.2c-0.1,0.3-0.1,0.5-0.2,0.6c0,0.1,0,0.2,0,0.2h1l0.1-0.2
		c-0.1-0.1-0.1-0.2-0.1-0.5c0-0.1,0.1-0.3,0.2-0.6l0.3-1c0.1-0.4,0.2-0.7,0.1-0.9c-0.1-0.2-0.2-0.3-0.4-0.5c0.3-0.2,0.6-0.4,0.9-0.7
		C124.7,83.4,124.9,83,125,82.6z M124.1,82.7c-0.2,0.5-0.4,0.8-0.7,1c-0.3,0.2-0.6,0.3-1,0.3h-1.9l0.9-2.5h2c0.3,0,0.5,0.1,0.6,0.2
		C124.3,81.8,124.3,82.1,124.1,82.7z"/>
	<polygon class="st0" points="127.1,80.6 124.5,88 125.4,88 128,80.6 	"/>
	<path class="st0" d="M132.1,85.3c-0.3,0.5-0.5,0.9-0.8,1.2c-0.5,0.6-1.1,0.9-1.7,0.9c-0.7,0-1.1-0.3-1.2-0.8
		c-0.1-0.5-0.1-1.2,0.2-2.1c0.4-1.1,0.8-1.9,1.4-2.4c0.6-0.5,1.1-0.8,1.7-0.8c0.5,0,0.8,0.1,1,0.4c0.2,0.3,0.2,0.7,0.2,1.1h0.8
		c0.2-0.6,0.1-1.2-0.1-1.7c-0.3-0.5-0.8-0.7-1.6-0.7c-0.9,0-1.8,0.4-2.6,1.1c-0.7,0.7-1.3,1.6-1.7,2.7c-0.5,1.4-0.6,2.5-0.2,3.2
		c0.3,0.5,0.8,0.8,1.5,0.8c0.8,0,1.6-0.3,2.3-1c0.6-0.5,1.1-1.2,1.4-2H132.1z"/>
	<polygon class="st0" points="145.2,80.6 140.1,80.6 139.8,81.5 141.9,81.5 139.6,88 140.5,88 142.8,81.5 144.8,81.5 	"/>
	<path class="st0" d="M150.5,81.6c-0.2-0.8-0.9-1.3-2-1.3c-1,0-2,0.5-2.8,1.4c-0.7,0.7-1.2,1.6-1.5,2.6c-0.4,1.1-0.5,2-0.2,2.8
		c0.3,0.8,0.9,1.1,1.8,1.1c1,0,2-0.4,2.8-1.3c0.7-0.7,1.3-1.7,1.7-2.8C150.6,83.1,150.7,82.3,150.5,81.6z M149.3,84.2
		c-0.3,0.8-0.7,1.6-1.3,2.2c-0.6,0.6-1.2,1-1.9,1c-0.8,0-1.2-0.3-1.4-0.8c-0.1-0.6-0.1-1.3,0.2-2.1c0.4-1,0.8-1.8,1.4-2.3
		c0.6-0.5,1.2-0.8,1.8-0.8c0.7,0,1.1,0.3,1.3,0.8C149.7,82.6,149.6,83.3,149.3,84.2z"/>
	<path class="st0" d="M156.8,82.6c0.3-0.9,0.2-1.4-0.3-1.8c-0.2-0.2-0.6-0.2-1.1-0.2h-2.9L150,88h0.8l1.1-3.2h1.9
		c0.3,0,0.6,0,0.7,0.1c0.2,0.2,0.3,0.5,0.1,1l-0.4,1.2c-0.1,0.3-0.1,0.5-0.2,0.6c0,0.1,0,0.2,0,0.2h1l0.1-0.2
		c-0.1-0.1-0.1-0.2-0.1-0.5c0-0.1,0.1-0.3,0.2-0.6l0.3-1c0.1-0.4,0.2-0.7,0.1-0.9c-0.1-0.2-0.2-0.3-0.4-0.5c0.3-0.2,0.6-0.4,0.9-0.7
		C156.4,83.4,156.6,83,156.8,82.6z M155.9,82.7c-0.2,0.5-0.4,0.8-0.7,1c-0.3,0.2-0.6,0.3-1,0.3h-1.9l0.9-2.5h2
		c0.3,0,0.5,0.1,0.6,0.2C156,81.8,156.1,82.1,155.9,82.7z"/>
	<path class="st0" d="M160.9,80.4c-0.7,0-1.3,0.2-1.9,0.6c-0.5,0.4-0.9,1-1.2,1.6c-0.2,0.6-0.2,1.1,0.1,1.4c0.2,0.2,0.5,0.3,1,0.5
		l0.8,0.2c0.4,0.1,0.7,0.3,0.8,0.4c0.2,0.2,0.2,0.5,0,0.9c-0.2,0.5-0.6,0.9-1.1,1.1c-0.3,0.1-0.6,0.2-0.9,0.2
		c-0.7,0-1.1-0.2-1.2-0.7c-0.1-0.3,0-0.6,0.1-1h-0.8c-0.3,0.8-0.3,1.4,0,1.9c0.3,0.5,0.8,0.7,1.6,0.7c0.7,0,1.3-0.2,1.9-0.5
		c0.6-0.4,1.1-0.9,1.4-1.8c0.2-0.7,0.2-1.2-0.1-1.5c-0.2-0.2-0.4-0.4-0.8-0.5l-0.8-0.2c-0.5-0.2-0.9-0.3-1-0.4
		c-0.2-0.2-0.2-0.4-0.1-0.8c0.1-0.3,0.3-0.6,0.6-0.9c0.3-0.2,0.7-0.4,1.2-0.4c0.6,0,1,0.2,1.1,0.6c0.1,0.2,0,0.5-0.1,0.9h0.8
		c0.3-0.8,0.3-1.4,0-1.8C162,80.6,161.6,80.4,160.9,80.4z"/>
	<polygon class="st0" points="160.7,71.6 158.9,78.6 161.7,78.6 162,77.6 160.1,77.6 161.7,71.6 	"/>
	<polygon class="st0" points="165.8,71.6 164.8,71.6 162.9,78.6 165.8,78.6 166.1,77.6 164.2,77.6 	"/>
	<path class="st0" d="M171.4,72c-0.2-0.3-0.5-0.5-1-0.5c-0.2,0-0.5,0-0.7,0.1c-0.2,0.1-0.4,0.2-0.6,0.3c-0.2,0.1-0.3,0.3-0.5,0.5
		c-0.1,0.2-0.2,0.4-0.3,0.6l-1,3.8c-0.1,0.3-0.1,0.6-0.1,0.8c0,0.2,0.1,0.4,0.2,0.5c0.1,0.1,0.3,0.2,0.4,0.3
		c0.2,0.1,0.4,0.1,0.5,0.1c0.2,0,0.4,0,0.6-0.1c0.2-0.1,0.4-0.2,0.6-0.4c0.2-0.2,0.3-0.3,0.5-0.5c0.1-0.2,0.2-0.4,0.3-0.6l0.1-0.4
		h-1l-0.1,0.3c0,0.1-0.1,0.3-0.1,0.3c-0.1,0.1-0.1,0.2-0.2,0.2c-0.1,0.1-0.2,0.1-0.2,0.1c-0.1,0-0.2,0-0.2,0c-0.2,0-0.4-0.1-0.4-0.2
		c0-0.1,0-0.3,0-0.5l1-3.6c0.1-0.2,0.2-0.4,0.3-0.6c0.1-0.2,0.3-0.2,0.5-0.2c0.2,0,0.3,0.1,0.4,0.2c0.1,0.1,0.1,0.3,0,0.5l-0.1,0.3
		h1l0.1-0.4c0.1-0.2,0.1-0.5,0.1-0.7C171.5,72.3,171.5,72.2,171.4,72z"/>
</g>
<g>
	<path class="st1" d="M98.5,66.8h-0.2c0.1,0,0.1,0.1,0.2,0.1L98.5,66.8z"/>
	<path class="st1" d="M85.6,69.6l-0.1,0.6h0.7C86,70,85.8,69.8,85.6,69.6z"/>
	<path class="st1" d="M149.9,66.5h0.3c0-0.1,0-0.2-0.1-0.2l0,0c0,0-0.2-0.3-0.5-0.3l0,0c-0.1,0-1.1,0.1-1.9,2.4
		c-0.3,1-0.4,1.8-0.4,2.5c0-0.1,0-0.2,0.1-0.3l0-0.1c0.3-1.7,0.4-2,0.4-2.2C148,67,149,66.5,149.9,66.5z"/>
	<path class="st1" d="M137.2,21.5c0.9-0.1,2.1-0.3,3.4-0.5c3.4-0.5,8.7-0.1,13.3,0c4.7,0.1,8.4-0.2,13.3-1.2c3.3-0.7,5.5-1.5,6.6-2
		c0-1.3-0.4-2.3-1.4-2.7c-2.2-0.9-11.9,1.2-16.4,1.2s-8.9-0.8-11.6-0.7c-1.6,0-4.9,0.4-7.3,0.8c0.1,0.4,0.1,1.3,0.1,2.4
		C137.3,19.7,137.3,20.5,137.2,21.5z"/>
	<path class="st1" d="M140,26.6c-0.9,0-2.1,0.1-3.2,0.1c0,0.3-0.1,0.7-0.1,1c-0.2,1.3-0.4,2.5-0.7,3.6c-0.1,0.2-0.1,0.5-0.2,0.7
		c0,0.1,0,0.2-0.1,0.3c2.9-0.3,9.4-0.8,13.1-1.3c4.9-0.6,10.9-1,15.3-1.9c2.5-0.5,5.7-1.3,7.8-1.9c0.3-0.9,0.6-1.8,0.8-2.6
		c0.2-0.7,0.3-1.3,0.5-1.9c-2.7,0.7-8.9,2.3-15.3,2.9C149.4,26.5,142.1,26.6,140,26.6z"/>
	<path class="st1" d="M146.5,36c-1.9,0.3-4.8,0.8-7.1,1.2c1.5,0.8,2.5,1.9,3.1,3c1.3-0.2,2.7-0.3,4.1-0.5c0.4-0.9,0.6-1.4,0.8-1.7
		c0.1-0.3,0.6-1.2,1.9-1.1l0,0h4.4c0.8,0,1.9,0.5,2.2,1.7c0,0,0,0.1,0,0.3c1.1-0.1,2.2-0.2,3.4-0.2c0-0.1,0.1-0.3,0.2-0.5
		c0.4-0.8,1.1-1.3,2-1.3h4c0.9,0,1.5,0.4,1.8,0.8c0.8-1.9,1.7-3.6,2.4-5.3c-2.4,0.8-6.7,2-10.4,2.2C154.1,34.7,150.1,35.4,146.5,36z
		"/>
	<path class="st1" d="M156.7,61.2c0.8,1,1.2,2.1,1.4,3c4.5,1,8.6,2.7,9.1,2.5c0.5-0.2,0.2-2.3-0.7-3.4c-0.1-0.1-0.2-0.2-0.3-0.3
		c-1.7-0.4-4.8-1.1-7.4-1.5C158.2,61.4,157.5,61.3,156.7,61.2z"/>
	<path class="st1" d="M141.9,62.2c0.5-0.6,1-1.1,1.6-1.6c-0.5,0-0.9,0-1.3,0c0,0,0,0,0,0C142.1,60.7,142,61.3,141.9,62.2z"/>
	<path class="st1" d="M157.7,57.1c-0.4,0.3-0.8,0.4-1.3,0.4H152c-1,0-1.9-0.8-2.1-1.8c0-0.1,0-0.2-0.1-0.5h-1.4
		c-0.6,1.1-0.6,1.2-0.7,1.2c-0.4,0.7-1.1,1.1-2,1.1h-3.9c-0.8,0-1.5-0.4-1.9-1c-0.2-0.2-0.2-0.5-0.3-0.8c-1.8,1.6-4.2,2.4-6.8,2.4
		c-0.5,0-1,0-1.5-0.1c-0.2,0.1-0.3,0.1-0.5,0.2c1,0.2,1.5,0.8,1.7,1.3c0.1,0.1,0.2,0.3,0.3,0.8c0.2-0.1,0.5-0.3,0.8-0.4
		c0.3-1,1.1-1.7,2.1-1.7h4.1c0.2,0,0.4,0,0.6,0.1c6-0.7,12.9-0.4,15.3,0.2c2.6,0.6,5.2,1.5,6.5,1.9c-0.2-0.2-0.4-0.3-0.4-0.5
		c-0.1-0.2-0.2-1.1-0.1-2.4h-2.7C158.5,57.5,158,57.4,157.7,57.1z"/>
	<path class="st1" d="M144,44.5c0,0.6-0.1,1.2-0.4,1.7c0,0,0,0,0.1,0c0.6-1.3,1.1-2.4,1.6-3.4c-0.5,0.1-1,0.2-1.5,0.2
		C143.9,43.7,144,44.2,144,44.5z"/>
	<path class="st1" d="M135.7,46.3c-0.3-0.4-0.3-0.9-0.4-1.2l0-0.1c0-0.2-0.1-0.4-0.2-0.6c0,0,0,0-0.1,0c-0.2,0-0.8,0.7-1.2,2.4
		c0.7,0,1.5-0.1,2.2-0.1C135.9,46.7,135.8,46.5,135.7,46.3z"/>
	<path class="st1" d="M157,45c0.4,0,0.8,0,1.3,0c0.2-1.2,0.4-2.3,0.5-3.2c-0.7,0-1.5,0.1-2.3,0.1C156.7,42.8,156.8,43.9,157,45z"/>
	<path class="st1" d="M77.9,18.8c0,0.4-0.1,1-0.2,1.6c0,0.2-0.1,0.4-0.1,0.7c1.1,0.1,2.8,0.3,4.9,0.3c0.3-2.1,0.6-3.6,0.6-3.8
		c0-0.1,0-0.2,0.1-0.3c-2.6,0.1-4.3,0.1-5.1,0.1c0,0.2,0,0.5,0,0.7C78,18.2,78,18.5,77.9,18.8z"/>
	<path class="st1" d="M91.8,18.1c0,0.1-0.2,1-0.4,2.4c7-1.3,17.4-3.6,22.6-4.1c5.6-0.6,18.2-1.1,22.7-1.3c-0.6-1.4-1.7-3-3.4-3
		c-9.1-0.2-30.2,3.2-40.8,4.4c-0.3,0-0.7,0.1-1,0.1C91.8,17.1,91.9,17.6,91.8,18.1z"/>
	<path class="st1" d="M137.1,23.3c0-0.6,0.1-1.2,0.1-1.8c0-0.9,0.1-1.8,0.1-2.6c-2.3-0.2-6.5-0.5-12.1-0.5c-8.5,0-22.8,2.7-26.6,3.6
		c-2.6,0.6-5.3,1.4-7.8,2c-0.2,1.4-0.5,2.8-0.7,4.2c3.2-0.8,12.9-4.4,22.8-5.3C122.4,22.1,131,21.6,137.1,23.3z"/>
	<path class="st1" d="M76.4,28.4h4c0.1,0,0.5,0,1,0.2c0.2-1.2,0.4-2.4,0.6-3.6c-1.8,0-3.6-0.1-5-0.1C76.8,26,76.6,27.2,76.4,28.4z"
		/>
	<path class="st1" d="M81.3,35.5c-0.4,0.4-1,0.6-1.6,0.6h-2.5l-1,0.6c1.4,0.1,3.2,0.2,5,0.2c0.3-0.1,0.5-0.2,0.8-0.2h2.4l0.3-0.7
		h-1.7C82.3,36.1,81.7,35.9,81.3,35.5z"/>
	<path class="st1" d="M135.8,32c0.1-0.2,0.1-0.5,0.2-0.7c0.3-1.1,0.5-2.3,0.7-3.6c-1.6-0.5-5.5-1.2-14.1-1.5
		c-9.9-0.3-21.4,2.2-26.4,3.4c0.1,0.3,0.2,0.7,0.1,1.1c0,0-0.5,3-0.7,3.7c2.9-1.2,8.5-3,17.3-3.7C125.1,29.6,133.5,31.5,135.8,32z"
		/>
	<path class="st1" d="M84.8,36.1l-0.1,0.7h1.6c1.6-0.2,3.2-0.5,4.5-0.7H84.8z"/>
	<path class="st1" d="M102.1,36.8c0.6,0,1.1,0.3,1.6,0.7c0.3-0.4,0.8-0.7,1.7-0.7h7.7c1.2,0,3.7,0.5,5.3,2.2c0.2,0,0.5-0.1,0.9-0.1
		c0,0,0,0,0,0c0.1-0.3,0.1-0.7,0.4-1c0.4-0.7,1.1-1.1,1.9-1.1h4.4c0.3,0,1.1,0,1.8,0.7c0.3,0.3,0.6,0.9,0.5,1.8
		c0.2,0,0.4,0.1,0.6,0.1c1.3-1.3,3.1-2.6,5.5-3c-2-0.8-6.7-2.1-15.7-2.1C112.8,34.4,106.9,35.6,102.1,36.8z"/>
	<path class="st1" d="M108.4,60.8c0,0.2-0.3,1.9-0.6,3.3h1.1c0.2-1.3,0.6-3.8,0.7-4c0.1-0.4,0.2-0.7,0.3-0.9c-0.5,0-1,0.1-1.6,0.1
		C108.4,59.8,108.5,60.3,108.4,60.8z"/>
	<path class="st1" d="M79,58.8c0.4-0.4,0.9-0.6,1.5-0.6h4.4c0.3,0,1.1,0,1.8,0.7c0.1,0.1,0.2,0.3,0.3,0.5c0.4,0,0.8,0,1.2,0
		c1.3-0.8,3.1-1.4,5.6-1.3c0.1,0,0.3,0,0.4,0l0.1-0.5H88c-0.9,0-1.5-0.5-1.7-0.8c0,0,0,0,0,0c-0.4,0.5-1,0.8-1.6,0.8h-4c0,0,0,0,0,0
		c-1,0.2-2,0.5-2.9,0.7C78.3,58.3,78.7,58.5,79,58.8z"/>
	<path class="st1" d="M70.1,13.7c3.8,0.3,6.5,1.4,7.9,2.1c-0.1-1.6-0.3-2.5-0.3-2.5s-1.5-2.3-7.3-2.9c-4.4-0.4-8.6,0.4-10.3,0.8
		l0.3,3.1C63,14,66.9,13.5,70.1,13.7z"/>
	<path class="st1" d="M78,17C78,17,78,16.9,78,17L78,17C78,16.9,78,17,78,17z"/>
	<path class="st1" d="M66.4,19.9c0.8,0,1.6,0,2.6,0c0.2-1.2,0.3-2.1,0.4-2.3c0.1-0.3,0.1-0.7,0.3-1l-3.8,0.3c0,0.1,0.1,0.2,0.1,0.3
		C66,17.2,66.2,18.3,66.4,19.9z"/>
	<path class="st1" d="M77.9,18.8c-0.1,0.4-0.2,1-0.3,1.6c0,0,0,0,0.1,0C77.8,19.8,77.9,19.3,77.9,18.8z"/>
	<path class="st1" d="M67.7,28.1c0.2-1.2,0.4-2.5,0.6-3.7l0-0.2c0-0.3,0.1-0.5,0.1-0.8c-0.5,0-1,0.1-1.5,0.1
		C67.2,25,67.5,26.6,67.7,28.1z"/>
	<path class="st1" d="M77.1,23.7c0,0.1,0,0.2,0,0.3C77.1,23.9,77.1,23.8,77.1,23.7C77.1,23.7,77.1,23.7,77.1,23.7z"/>
	<path class="st1" d="M67.7,58.2c1.3,0,2,0.8,2.2,1.3c0,0.1,0.1,0.2,0.2,0.4h0.9c0.3-0.9,0.9-1.5,1.6-1.6l0.2-0.8
		c-0.2,0-0.5,0.1-0.7,0.1h-3.7c-0.4,0-0.7-0.1-1.1-0.3c-0.3,0.2-0.7,0.3-1.1,0.3h-1.8l0.1,0.7H67.7z"/>
	<path class="st1" d="M67.5,48.1c0.1-0.9,0.3-1.7,0.4-2.6l-0.8-0.1C67.2,46.3,67.3,47.2,67.5,48.1z"/>
	<polygon class="st1" points="53.2,20.1 52.1,9 39.9,30.7 47.2,30.7 	"/>
	<polygon class="st1" points="24.6,31.4 16.1,31.4 31.8,45.1 19,67.9 30.1,61.1 39.6,44.3 	"/>
	<path class="st1" d="M55.1,58.6c0.2-0.2,0.4-0.3,0.6-0.3l-0.9-0.8h-2.9c-0.8,0-1.5-0.4-1.9-1c-0.4-0.6-0.4-1.3-0.1-2.1
		c0,0,0.1-0.2,0.2-0.4l0.1-0.2c0-0.1,0.1-0.2,0.1-0.3L49.7,53l-5,3.1l2.6,2.2H54C54.4,58.3,54.7,58.4,55.1,58.6z"/>
	<path class="st1" d="M60.8,58.1c0.3,0,1,0,1.6,0.5c0.3-0.3,0.7-0.4,1-0.5l-0.1-0.7H62c-1,0-1.9-0.8-2.1-1.8c0-0.1,0-0.2-0.1-0.5
		h-1.4c-0.6,1.1-0.6,1.2-0.7,1.2c-0.3,0.5-0.7,0.8-1.3,1l0.9,0.8H60.8z"/>
	<path class="st1" d="M69.1,36.1c-0.5,0-1-0.2-1.4-0.5c-0.4,0.3-0.9,0.5-1.4,0.5H62c-1,0-1.9-0.8-2.1-1.8c0-0.1,0-0.2-0.1-0.5h-1.4
		c-0.6,1.1-0.6,1.2-0.7,1.2c-0.4,0.7-1.1,1.1-2,1.1h-3.9c-0.8,0-1.5-0.4-1.9-1c-0.4-0.6-0.4-1.3-0.1-2.1c0-0.1,0.1-0.3,0.3-0.6
		C55.4,21,57,17.5,57.4,16.6c0.1-0.3,0.6-1.2,1.9-1.1L59,12.1L47.9,31.9h-21L41,44L30,63.8l19.8-12.2l0.9,0.8
		c4.8-10.3,6.3-13.6,6.7-14.5c0.1-0.3,0.6-1.2,1.9-1.1l0,0h4.4c0.8,0,1.9,0.5,2.2,1.7c0,0,0.2,1.2,0.4,2.8l2.3-1.4
		c0.1-0.5,0.1-0.9,0.2-1.2c0.2-1.1,1.2-1.9,2.2-1.9h2.6l1.1-0.7H69.1z"/>
	<path class="st1" d="M177,37.6c-0.4-0.5-1.1-0.8-1.9-0.8H171c-1.1,0-2,0.9-2.2,2.2c0,0.1-0.1,0.4-0.2,1.1c-0.5-1.1-0.7-1.8-0.8-2
		c-0.1-0.2-0.2-0.3-0.4-0.5c-0.4-0.4-1-0.8-1.8-0.8h-4c-0.8,0-1.6,0.5-2,1.3c-0.1,0.2-0.1,0.3-0.2,0.5c-0.1,0.2-0.1,0.4-0.1,0.5l0,0
		c0,0.1-0.2,1.2-0.5,2.7c-0.2,0.9-0.3,2-0.5,3.2c-0.2,1.3-0.5,2.7-0.7,4c-0.2-1.3-0.4-2.7-0.6-4c-0.2-1.1-0.3-2.2-0.5-3.1
		c-0.2-1.4-0.4-2.6-0.5-3.1c0-0.2,0-0.3,0-0.3c-0.2-1.2-1.4-1.7-2.2-1.7h-4.4l0,0c-1.3-0.1-1.8,0.8-1.9,1.1
		c-0.1,0.3-0.3,0.8-0.8,1.7c-0.3,0.7-0.8,1.8-1.4,3.1c-0.4,0.9-0.9,2-1.6,3.4c-0.2,0.5-0.5,1.1-0.8,1.7c-0.2-0.2-0.4-0.4-0.6-0.6
		c0.4-0.1,0.7-0.3,1-0.6c0.2-0.2,0.3-0.4,0.4-0.6c0.2-0.5,0.4-1.1,0.4-1.7c0-0.3-0.1-0.8-0.2-1.4c-0.2-0.8-0.5-1.8-1.1-2.8
		c0,0,0,0,0-0.1c-0.6-1.1-1.6-2.2-3.1-3c-1-0.5-2.2-0.8-3.6-0.8c-0.5,0-1,0-1.5,0.1c-0.1,0-0.1,0-0.2,0c-2.4,0.4-4.2,1.6-5.5,3
		c-0.3,0.3-0.5,0.6-0.8,0.9c0.1-0.5,0.1-0.9,0.2-0.9c0,0,0-0.1,0-0.1c0.1-0.9-0.2-1.5-0.5-1.8c-0.6-0.7-1.5-0.7-1.8-0.7h-4.4
		c-0.8,0-1.5,0.4-1.9,1.1c-0.2,0.4-0.3,0.7-0.4,1c0,0,0,0,0,0c0,0.1-0.1,0.5-0.2,1c-0.2-0.3-0.4-0.6-0.6-0.9c0,0-0.1-0.1-0.1-0.1
		c-1.6-1.7-4.2-2.2-5.3-2.2h-7.7c-0.8,0-1.4,0.3-1.7,0.7c-0.4-0.4-1-0.7-1.6-0.7c0,0-0.1,0-0.1,0H90.7c-0.7,0-1.3,0.3-1.6,0.8
		c0,0,0,0,0,0c-0.3-0.3-0.8-0.7-1.7-0.7h-1h-1.6l0.1-0.7h-0.3l-0.3,0.7h-2.4c-0.3,0-0.6,0.1-0.8,0.2c-0.6,0.3-1.1,0.8-1.3,1.5
		c-0.1,0.1-0.4,0.9-1,2.3c-0.1-1.3-0.2-2-0.2-2.1c-0.1-1.1-1-2-2-2h-0.5h-2.2h-2.6c-1.1,0-2.1,0.8-2.2,1.9c0,0.3-0.1,0.7-0.2,1.2
		c-0.1,0.4-0.2,1-0.2,1.5c-0.1,0.4-0.1,0.9-0.2,1.4l0,0.1c-0.1,0.8-0.3,1.7-0.4,2.6c-0.1,0.8-0.3,1.7-0.4,2.6
		c-0.1-0.9-0.3-1.8-0.4-2.7c-0.2-1-0.3-1.9-0.4-2.8c-0.1-0.4-0.1-0.9-0.2-1.3c-0.3-1.6-0.4-2.8-0.4-2.8c-0.2-1.2-1.4-1.7-2.2-1.7
		h-4.4l0,0c-1.3-0.1-1.8,0.8-1.9,1.1c-0.4,0.9-1.9,4.1-6.7,14.5c-0.2,0.4-0.3,0.7-0.5,1.1c0,0.1-0.1,0.2-0.1,0.3L50,54
		c-0.1,0.2-0.2,0.4-0.2,0.4c-0.3,0.7-0.3,1.5,0.1,2.1c0.4,0.6,1.1,1,1.9,1h2.9h1c0.3,0,0.5,0,0.7-0.1c0.5-0.2,1-0.5,1.3-1
		c0,0,0.1-0.1,0.7-1.2h1.4c0.1,0.3,0.1,0.4,0.1,0.5c0.2,1.1,1,1.8,2.1,1.8h1.3h1.2h0h1.8c0.4,0,0.8-0.1,1.1-0.3
		c0.3,0.2,0.7,0.3,1.1,0.3h3.7c0.2,0,0.4,0,0.7-0.1c0.2,0,0.4-0.1,0.6-0.2c0.1-0.1,0.2-0.1,0.3-0.2c0.4,0.3,0.8,0.4,1.3,0.4h2.8
		c0.6,0,1.1-0.2,1.5-0.5c0.3,0.3,0.8,0.5,1.2,0.5c0,0,0,0,0,0h4c0.6,0,1.2-0.3,1.6-0.8c0,0,0,0,0,0c0.2,0.3,0.7,0.8,1.7,0.8h6.3h5.1
		c0.5,0,0.8-0.1,1.2-0.2c0.2-0.1,0.5-0.2,0.6-0.4c0.4,0.3,0.9,0.5,1.4,0.5h3.9c1.5,0,2.5-0.9,2.7-2.4c0-0.1,0.1-0.4,0.1-0.7
		c0,0.1,0,0.2,0,0.3c-0.1,0.6,0,1.5,0.6,2.2c0.4,0.5,0.9,0.7,1.5,0.7h4.7c0.5,0,0.9-0.2,1.2-0.5c0.4,0.3,0.9,0.5,1.4,0.5h4.3
		c1.2,0,2-0.7,2.3-1.8l0,0c0,0,0.1-0.3,0.4-2.2c0.3,0.7,0.7,1.3,1.1,1.9c0.3,0.3,0.6,0.7,1.1,1.1c0.8,0.7,2,1.3,3.6,1.5
		c0.5,0.1,1,0.1,1.5,0.1c2.6,0,4.9-0.8,6.8-2.4c0,0.3,0.1,0.5,0.3,0.8c0.4,0.6,1.1,1,1.9,1h3.9c0.9,0,1.6-0.4,2-1.1
		c0,0,0.1-0.1,0.7-1.2h1.4c0.1,0.3,0.1,0.4,0.1,0.5c0.2,1.1,1,1.8,2.1,1.8h4.3c0.5,0,1-0.1,1.3-0.4c0.4,0.3,0.8,0.4,1.3,0.4h2.7h1.3
		c1.2,0,2.1-0.9,2.2-2.2c0-0.1,0.1-0.5,0.2-1.2c0.4,1.1,0.6,1.4,0.6,1.5c0.4,1.1,1.4,1.8,2.6,1.8h3.7c1.2,0,2.1-0.8,2.4-2.1
		c0.2-0.8,2.7-15.9,2.7-16C177.6,38.7,177.4,38.1,177,37.6z M177,39.3c0,0.1-2.6,15.3-2.7,16c-0.2,1.1-1,1.8-2,1.8h-3.7
		c-1,0-1.9-0.6-2.2-1.6c-0.1-0.2-0.4-0.9-0.9-2.2l-0.3-0.7l-0.1,0.7c-0.2,1.2-0.3,1.8-0.3,1.9c-0.2,1.1-0.9,1.8-1.8,1.8h-4
		c-0.4,0-0.8-0.1-1.1-0.4l-0.1-0.1l-0.1,0.1c-0.3,0.3-0.7,0.4-1.2,0.4H152c-0.8,0-1.5-0.6-1.6-1.5c0-0.1-0.1-0.3-0.1-0.7l0-0.2h-2
		l-0.1,0.1c-0.7,1.2-0.7,1.3-0.7,1.3c-0.3,0.6-0.9,0.9-1.7,0.9h-3.9c-0.7,0-1.3-0.3-1.6-0.8c-0.2-0.3-0.3-0.6-0.2-1l0-0.5l-0.4,0.4
		c-1.8,1.7-4.2,2.6-6.8,2.6c-3.1,0-4.9-1.4-5.8-2.5c-0.6-0.7-1-1.5-1.3-2.5l-0.3-0.8l-0.1,0.8c-0.4,2.3-0.5,2.9-0.5,2.9l0,0
		c-0.2,0.9-0.9,1.4-1.9,1.4h-4.3c-0.5,0-0.9-0.2-1.2-0.5l-0.2-0.2l-0.2,0.2c-0.3,0.3-0.7,0.5-1.1,0.5h-4.7c-0.5,0-0.9-0.2-1.2-0.6
		c-0.5-0.6-0.6-1.3-0.5-1.8c0.1-0.3,0.4-2.8,0.5-3.4l0-0.1l-0.1-0.1c-0.1-0.1-0.3-0.1-0.4-0.1l-0.2,0l0,0.2
		c-0.1,0.8-0.6,3.5-0.7,3.8c-0.2,1.3-1.1,2.1-2.3,2.1h-3.9c-0.5,0-1-0.2-1.3-0.5l-0.2-0.2l-0.2,0.2c-0.2,0.2-0.4,0.3-0.6,0.4
		c-0.3,0.1-0.6,0.1-1,0.1H88c-0.8,0-1.2-0.4-1.4-0.6c-0.1-0.1-0.1-0.2-0.2-0.3l-0.2-0.4l-0.2,0.4c-0.3,0.5-0.8,0.9-1.4,0.9h-4
		c-0.4,0-0.8-0.2-1.1-0.5l-0.1-0.1l-0.2,0.1c-0.3,0.3-0.8,0.5-1.4,0.5h-2.8c-0.5,0-0.9-0.2-1.2-0.4l-0.1-0.1l-0.1,0.1
		c-0.1,0.1-0.2,0.2-0.3,0.2c-0.4,0.2-0.7,0.2-1.1,0.2h-3.7c-0.3,0-0.7-0.1-1-0.3l-0.1-0.1l-0.1,0.1c-0.3,0.2-0.6,0.3-1,0.3H62
		c-0.8,0-1.5-0.6-1.6-1.5c0-0.1-0.1-0.4-0.1-0.7l0-0.2h-2l-0.1,0.1c-0.7,1.2-0.7,1.3-0.7,1.3C57,56.7,56.5,57,55.7,57h-3.9
		c-0.7,0-1.3-0.3-1.6-0.8c-0.3-0.5-0.3-1.1-0.1-1.7c0,0,0.1-0.2,0.2-0.4l0.1-0.2c5.3-11.4,6.9-14.9,7.3-15.9c0.1-0.2,0.5-1,1.5-0.9
		l0,0l4.5,0c0.6,0,1.6,0.4,1.8,1.4c0,0.1,1,6.1,1.7,10.8l0.2,1.3l0.2-1.3c0.3-2.2,0.7-4.6,1-6.5l0-0.1c0.3-1.8,0.5-3.4,0.6-4.1
		c0.1-0.9,0.9-1.6,1.8-1.6h5.3c0.8,0,1.5,0.7,1.6,1.6c0,0.1,0.1,1.1,0.3,2.9l0.1,0.8l0.3-0.7c0.5-1.3,1.2-2.9,1.3-3.1
		c0.3-0.9,1-1.4,1.7-1.4h5.5c0.7,0,1.1,0.3,1.4,0.6c0,0,0.1,0.1,0.2,0.2l0.2,0.3l0.2-0.3c0.3-0.5,0.8-0.8,1.5-0.8H102
		c0.6,0,1.1,0.3,1.5,0.7l0.2,0.2l0.2-0.2l0,0c0.2-0.3,0.7-0.7,1.5-0.7h7.7c1.1,0,3.6,0.4,5.1,2.1c0.4,0.4,0.6,0.9,0.8,1.4l0.3,0.7
		l0.1-0.8c0.2-1,0.3-1.7,0.3-1.7c0-0.3,0.1-0.6,0.3-0.9c0.3-0.5,0.9-0.9,1.5-0.9h4.4c0.2,0,1,0,1.5,0.6c0.2,0.3,0.5,0.8,0.4,1.6
		c0,0-0.1,0.6-0.3,1.7l-0.2,0.9l0.5-0.8c1.4-2.1,4-4.5,8.1-4.5c3.6,0,5.5,2,6.5,3.6c1,1.7,1.3,3.5,1.3,4.1c0,0.8-0.2,1.5-0.6,2
		c-0.3,0.3-0.7,0.5-1.2,0.5c-0.2,0-2.8,0-4.1,0l0,0c-0.7,0-1.2-0.3-1.6-0.9c-0.2-0.4-0.3-0.8-0.3-1l0-0.1c0-0.2-0.1-0.5-0.2-0.7
		c-0.1-0.1-0.2-0.2-0.4-0.2c-0.6,0-1.4,1.3-1.8,3.5c-0.3,2,0.1,2.7,0.1,2.7l0.1,0.1h0.1c1,0,1.5-1.3,1.5-1.3c0.1-0.4,0.3-0.7,0.5-1
		c0.2-0.3,0.6-0.6,1.4-0.6h4.4c0.5,0,1,0.2,1.3,0.6c0.1,0.1,0.1,0.2,0.2,0.3l0.2,0.4l0.2-0.4c3.3-7.2,4.4-9.6,4.7-10.3
		c0.1-0.2,0.5-1,1.5-0.9l0,0l4.5,0c0.6,0,1.6,0.4,1.8,1.4c0,0.1,1.1,6.9,1.8,11.7l0.2,1.3l0.2-1.3c0.8-4.7,1.8-10.9,1.9-11.1l0,0
		c0-0.2,0.1-0.6,0.3-0.9c0.3-0.7,0.9-1.1,1.6-1.1h4c1.1,0,1.6,0.7,1.9,1.1c0.1,0.1,0.3,0.7,1.1,2.6l0.3,0.7l0.1-0.7
		c0.2-1.1,0.3-1.7,0.3-1.8c0.2-1.1,0.9-1.8,1.8-1.8h4.1c0.7,0,1.3,0.2,1.6,0.6C177,38.2,177.1,38.7,177,39.3z M136.4,47.1
		c-0.6,0.1-1,0.5-1.2,0.8c-0.2,0.3-0.4,0.7-0.5,1.1c0,0-0.4,0.9-1,1c-0.1-0.3-0.2-1,0-2.3c0-0.3,0.1-0.5,0.1-0.7
		c0.4-1.7,1.1-2.4,1.2-2.4c0,0,0.1,0,0.1,0c0.1,0.1,0.1,0.4,0.2,0.6l0,0.1c0.1,0.3,0.1,0.8,0.4,1.2c0.1,0.2,0.2,0.3,0.4,0.5
		C136.2,46.9,136.3,47,136.4,47.1z"/>
	<path class="st1" d="M101.8,46.7c-0.1,0.4-0.1,0.8-0.2,1.2l0,0.1c-0.2,1.1-0.2,1.2-0.2,1.2c-0.1,0.3-0.2,0.6-0.5,0.8l-0.2,0.2
		l0.3,0.1c0.1,0.1,0.2,0.1,0.3,0.2l0.3,0.2l0.1-0.3c0.2-1.2,0.4-2.5,0.6-3.8L101.8,46.7z"/>
	<path class="st1" d="M102.3,43.9c-0.2,0.1-0.4,0.1-0.7,0.1l-0.4,0l0.3,0.3c0,0,0.1,0.1,0.1,0.1c0.3,0.4,0.4,0.8,0.4,1.2l0.4,0
		l0.3-2L102.3,43.9L102.3,43.9z M102.1,44.6c0-0.1-0.1-0.1-0.1-0.2c0.1,0,0.1,0,0.2,0L102.1,44.6z"/>
	<path class="st1" d="M118.5,45.7l-0.6,0.9c-0.2,0.4-0.5,0.7-0.8,1l-0.1,0.1l0.1,0.1c0.2,0.3,0.3,0.6,0.5,1l0.3,0.8l0.1-0.8
		c0.1-0.7,0.2-1.4,0.3-2.1L118.5,45.7z M117.7,48.1c0-0.1-0.1-0.2-0.1-0.2c0.1-0.1,0.1-0.2,0.2-0.2
		C117.8,47.7,117.7,47.9,117.7,48.1z"/>
	<path class="st1" d="M77.6,16.2c-0.4-0.5-1-0.8-1.7-0.8c-0.4,0-4.2,0-4.3,0c-0.9,0-1.4,0.4-1.7,0.7c-0.1,0.1-0.2,0.3-0.3,0.5
		c-0.2,0.4-0.3,0.7-0.3,1c0,0.2-0.2,1-0.4,2.3c-0.2,1-0.3,2.2-0.6,3.5c0,0.3-0.1,0.5-0.1,0.8l0,0.2c-0.2,1.2-0.4,2.5-0.6,3.7
		c-0.2-1.5-0.5-3.1-0.7-4.6c-0.2-1.3-0.4-2.5-0.6-3.6c-0.3-1.6-0.4-2.7-0.4-2.8c0-0.1,0-0.2-0.1-0.3c-0.3-1-1.4-1.5-2.1-1.5h-3.3
		h-1.2l0,0c0,0,0,0,0,0c-1.3-0.1-1.8,0.8-1.9,1.1c-0.4,0.9-2,4.4-7.3,15.9c-0.2,0.3-0.3,0.5-0.3,0.6c-0.3,0.7-0.3,1.5,0.1,2.1
		c0.4,0.6,1.1,1,1.9,1h3.9c0.9,0,1.6-0.4,2-1.1c0,0,0.1-0.1,0.7-1.2h1.4c0.1,0.3,0.1,0.4,0.1,0.5c0.2,1.1,1,1.8,2.1,1.8h4.3
		c0.5,0,1-0.2,1.4-0.5c0.4,0.3,0.9,0.5,1.4,0.5h5.8h2.2h2.5c0.7,0,1.2-0.2,1.6-0.6c0.4,0.4,1,0.6,1.6,0.6h1.7h0.3h6h2.6
		c1.1,0,1.9-0.6,2.3-1.7c0,0,0,0,0-0.1c0.2-0.7,0.6-3.6,0.7-3.7c0.1-0.4,0-0.7-0.1-1.1c-0.1-0.2-0.2-0.4-0.3-0.5
		c-0.6-0.7-1.6-0.8-1.7-0.8h-4c0,0,0-0.1,0-0.1c0.2-1.4,0.5-2.8,0.7-4.2c0.2-1.3,0.4-2.5,0.6-3.5c0.2-1.3,0.4-2.2,0.4-2.4
		c0.1-0.5,0-1.1-0.2-1.5c-0.1-0.1-0.2-0.3-0.3-0.4c-0.4-0.5-1-0.8-1.7-0.8c-0.4,0-4.2,0-4.3,0c-0.9,0-1.4,0.4-1.7,0.7
		c-0.3,0.4-0.5,0.8-0.6,1.2c0,0.1,0,0.2-0.1,0.3c0,0.2-0.3,1.7-0.6,3.8c-0.1,0.8-0.3,1.8-0.4,2.8L82,24.6c0,0.1,0,0.2-0.1,0.3
		c-0.2,1.2-0.4,2.5-0.6,3.6c-0.4-0.2-0.9-0.2-1-0.2h-4c0.2-1.2,0.4-2.4,0.6-3.5c0-0.3,0.1-0.6,0.1-0.8c0-0.1,0-0.2,0-0.3
		c0.2-1.2,0.4-2.3,0.5-3.3c0.1-0.7,0.2-1.2,0.3-1.6c0.1-0.4,0.1-0.6,0.1-0.7c0-0.2,0.1-0.5,0-0.7c0-0.2,0-0.3-0.1-0.5c0,0,0,0,0,0
		C77.9,16.7,77.8,16.4,77.6,16.2z M77.6,18.1c-0.1,0.4-1,5.9-1.7,10.5l0,0.2h4.5c0.1,0,0.6,0,1,0.3l0.3,0.2l0-0.3
		c0.2-1.3,0.5-2.8,0.7-4.2l0.1-0.4c0.5-3.3,1-6.2,1-6.6c0.1-0.4,0.2-0.9,0.5-1.3c0.2-0.3,0.7-0.6,1.4-0.6c0,0,3.8,0,4.3,0
		c0.5,0,1,0.2,1.4,0.6c0.3,0.4,0.5,1,0.4,1.6c-0.1,0.4-1,5.9-1.7,10.5l0,0.2h4.5c0.1,0,0.9,0,1.4,0.6c0.3,0.3,0.4,0.8,0.4,1.3
		c0,0.2-0.5,3.3-0.7,3.7c-0.3,0.9-0.9,1.4-1.9,1.4H82.8c-0.5,0-1.1-0.2-1.4-0.6l-0.2-0.2l-0.2,0.2c-0.3,0.4-0.9,0.6-1.5,0.6H69.1
		c-0.5,0-0.9-0.2-1.2-0.5l-0.1-0.1l-0.1,0.1c-0.3,0.3-0.8,0.5-1.3,0.5H62c-0.8,0-1.5-0.6-1.6-1.5c0-0.1-0.1-0.4-0.1-0.7l0-0.2h-2
		l-0.1,0.1c-0.7,1.2-0.7,1.3-0.7,1.3c-0.3,0.6-0.9,0.9-1.7,0.9h-3.9c-0.7,0-1.3-0.3-1.6-0.8c-0.3-0.5-0.3-1.1-0.1-1.7
		c0-0.1,0.1-0.3,0.3-0.6c5.3-11.4,6.9-14.9,7.3-15.9c0.1-0.2,0.5-1,1.5-0.9l0,0l4.5,0c0.6,0,1.6,0.4,1.8,1.4c0,0.1,1.2,7.4,1.9,12.2
		l0.2,1.3l0.2-1.3c0.2-1.5,0.5-3.3,0.8-5l0-0.2c0.5-3.3,1-6.2,1-6.6c0.1-0.4,0.2-0.9,0.5-1.3c0.2-0.3,0.7-0.6,1.4-0.6
		c0,0,3.8,0,4.3,0c0.5,0,1,0.2,1.4,0.6C77.6,16.9,77.7,17.5,77.6,18.1z"/>
	<path class="st1" d="M156.1,60.6c-1.5-1.5-3.5-2.2-6.1-2.2c-2.5,0-4.7,0.8-6.6,2.3c-0.6,0.5-1.1,1-1.6,1.6c0.2-0.9,0.3-1.5,0.3-1.5
		c0,0,0,0,0,0c0.1-0.6-0.1-1.2-0.5-1.7c-0.3-0.4-0.8-0.6-1.3-0.7c-0.2,0-0.4-0.1-0.6-0.1h-4.1c-0.9,0-1.7,0.7-2.1,1.7
		c0,0.2-0.1,0.3-0.1,0.5c0,0.1-0.1,0.6-0.2,1.1c-0.2-0.5-0.4-0.9-0.5-1.2c-0.2-0.4-0.3-0.7-0.3-0.8c-0.2-0.4-0.7-1.1-1.7-1.3
		c-0.2,0-0.3-0.1-0.5-0.1h-2.8h-1.2c-0.5,0-1,0.2-1.4,0.5c-0.6-0.5-1.3-0.5-1.6-0.5H119c-0.5,0-0.9,0.1-1.3,0.4
		c-0.6-0.4-1.2-0.4-1.4-0.4h-4.4c-0.4,0-1.4,0.1-1.9,1.2c-0.1,0.2-0.2,0.5-0.3,0.9c0,0.1-0.4,2.7-0.7,4h-1.1
		c0.3-1.5,0.5-3.1,0.6-3.3c0.1-0.6,0-1-0.1-1.4c-0.1-0.2-0.2-0.4-0.3-0.6c-0.6-0.7-1.5-0.7-1.8-0.7h-4.4c-0.4,0-1.9,0.1-2.2,2.1
		c0,0,0,0.3-0.1,0.6c-0.9-1.2-2.6-2.5-5.4-2.8c-0.1,0-0.3,0-0.4,0c-2.5-0.1-4.3,0.5-5.6,1.3c-0.4,0.2-0.8,0.5-1.1,0.8
		c0-0.3-0.1-0.5-0.2-0.7c-0.1-0.2-0.2-0.3-0.3-0.5c-0.6-0.7-1.5-0.7-1.8-0.7h-4.4c-0.6,0-1.1,0.2-1.5,0.6c-0.3-0.3-0.7-0.5-1.2-0.6
		c-0.2,0-0.4,0-0.6,0h-4.1c-0.2,0-0.3,0-0.4,0.1c-0.7,0.2-1.4,0.8-1.6,1.6c0,0.2-0.1,0.3-0.1,0.5c0,0.1-0.1,0.4-0.2,1.1
		c-0.3-0.7-0.5-1.2-0.7-1.6c-0.1-0.2-0.1-0.3-0.2-0.4c-0.3-0.5-0.9-1.3-2.2-1.3h-3.1h-0.1h-0.8c-0.1,0-0.2,0-0.3,0
		c-0.4,0.1-0.7,0.2-1,0.5c-0.6-0.5-1.3-0.5-1.6-0.5h-3.4h-1c-0.2,0-0.5,0-0.7,0.1c-0.2,0.1-0.4,0.2-0.6,0.3c-0.3-0.2-0.7-0.3-1-0.3
		h-6.8h-4.5c-1.1,0-1.9,0.7-2.1,1.8c0,0.1-0.2,1.3-0.5,3.1c-0.7,4.2-2.1,12.9-2.2,13.4c-0.1,0.6,0,1.2,0.4,1.6
		c0.2,0.3,0.7,0.8,1.7,0.8h4.3c1.8,0,2.2-1.4,2.2-1.8l0.9-4.7h4c0.3,0,0.5,0,0.7-0.1c-0.4,2.4-0.6,3.7-0.6,3.8
		c-0.1,0.9,0.2,1.5,0.5,1.9c0.4,0.5,1,0.7,1.6,0.7h4.3c0.7,0,1.3-0.2,1.7-0.6c0.4,0.4,0.9,0.6,1.5,0.6h4c1.2,0,2.1-0.9,2.2-2.2
		c0-0.1,0.1-0.5,0.2-1.2c0.4,0.9,0.6,1.4,0.6,1.5c0.4,1.1,1.4,1.8,2.6,1.8h3.7c0.7,0,1.2-0.2,1.7-0.7c0.4,0.4,1,0.7,1.6,0.7H82
		c1.2,0,2-0.7,2.3-1.8l0,0c0,0,0,0,0.1-0.5c1.6,1.8,4.1,2.8,7.2,2.8c2.2,0,4.1-0.6,5.6-1.8c0.1,0.2,0.2,0.4,0.3,0.5
		c0.4,0.5,1,0.7,1.6,0.7h4.3c1.2,0,2-0.7,2.3-1.8l0,0c0-0.1,0-0.1,0.8-4.7h1.2c-0.6,3.6-0.6,3.8-0.6,3.8c-0.1,0.9,0.2,1.5,0.5,1.9
		c0.4,0.5,1,0.7,1.6,0.7h4.3c0.6,0,1.1-0.2,1.5-0.5c0.4,0.3,0.8,0.5,1.4,0.5h4.3c0.7,0,1.2-0.2,1.7-0.6c0.4,0.4,0.9,0.6,1.5,0.6h4
		c1.2,0,2.1-0.9,2.2-2.2c0-0.1,0.1-0.5,0.2-1.2c0.4,0.9,0.6,1.4,0.6,1.5c0.4,1.1,1.4,1.8,2.6,1.8h3.7c1.2,0,2.1-0.8,2.4-2.1
		c0-0.1,0.1-0.5,0.2-1.2c0.7,1.5,1.9,2.6,3.4,3.4c1.2,0.6,2.5,0.9,3.8,0.9c1.2,0,2.4-0.3,3.6-0.8c0.3,0.3,0.7,0.5,1.4,0.5h2.3
		c0.4,0,1.7-0.1,2.1-1.8c0.1-0.4,1.7-8,1.7-8.4c0,0,0-0.1,0-0.1l0,0c0.1-0.4,0.3-1.2-0.2-1.9c0.3-0.4,0.4-0.8,0.4-1.3
		c0-0.3,0-1-0.2-1.9c-0.2-0.9-0.6-2-1.4-3C156.5,61,156.3,60.8,156.1,60.6z M157.8,66.1c0,0.4-0.1,0.8-0.4,1.1l-0.1,0.1l0.1,0.1
		c0.5,0.6,0.3,1.3,0.2,1.7l0,0c0,0,0,0.1,0,0.1c-0.1,0.4-1.6,8-1.7,8.4c-0.3,1.3-1.4,1.4-1.7,1.4h-2.3c-0.6,0-1-0.3-1.2-0.5
		l-0.1-0.1l-0.1,0.1c-1.2,0.6-2.4,0.9-3.6,0.9c-1.2,0-2.5-0.3-3.6-0.9c-1.6-0.8-2.8-2.1-3.5-3.8l-0.3-0.7l-0.1,0.7
		c-0.2,1.1-0.3,1.7-0.3,1.8c-0.2,1.1-1,1.8-2,1.8h-3.7c-1,0-1.9-0.6-2.2-1.6c-0.1-0.2-0.4-0.9-0.9-2.2l-0.3-0.7l-0.1,0.7
		c-0.2,1.2-0.3,1.8-0.3,1.9c-0.2,1.1-0.9,1.8-1.8,1.8h-4c-0.5,0-1-0.2-1.3-0.6c0,0,0,0,0,0l-0.2-0.2l-0.2,0.2
		c-0.3,0.4-0.9,0.6-1.5,0.6h-4.3c-0.5,0-0.9-0.2-1.2-0.5l-0.1-0.1l-0.1,0.1c-0.3,0.3-0.8,0.5-1.4,0.5h-4.3c-0.5,0-1-0.2-1.3-0.6
		c-0.2-0.3-0.5-0.8-0.4-1.6c0-0.1,0-0.2,0.7-4.1l0-0.2h-2l0,0.2c-0.8,4.7-0.8,4.8-0.8,4.8l0,0c-0.2,0.9-0.9,1.4-1.9,1.4H99
		c-0.5,0-1-0.2-1.3-0.6c-0.2-0.2-0.3-0.4-0.4-0.7l-0.1-0.3l-0.2,0.2c-1.5,1.2-3.4,1.8-5.6,1.8c-3.1,0-5.6-1.1-7.1-3l-0.3-0.4
		L84,76.1c-0.1,0.7-0.2,0.9-0.2,0.9l0,0c-0.2,0.9-0.9,1.4-1.9,1.4h-4.3c-0.5,0-1-0.2-1.3-0.6c0,0-0.1-0.1-0.1-0.1l-0.2-0.2L76,77.7
		c-0.4,0.5-0.9,0.7-1.5,0.7h-3.7c-1,0-1.9-0.6-2.2-1.6c-0.1-0.2-0.4-0.9-0.9-2.2L67.4,74l-0.1,0.7c-0.2,1.2-0.3,1.8-0.3,1.9
		c-0.2,1.1-0.9,1.8-1.8,1.8h-4c-0.5,0-1-0.2-1.3-0.6c0,0,0,0,0,0l-0.2-0.2l-0.2,0.2c-0.3,0.4-0.9,0.7-1.5,0.7h-4.3
		c-0.5,0-1-0.2-1.3-0.6c-0.2-0.3-0.5-0.8-0.4-1.6c0-0.1,0.1-0.9,0.7-4.1l0.1-0.3L52.4,72c-0.2,0.1-0.5,0.1-0.9,0.1h-4.3l-0.9,5.1
		c-0.1,0.4-0.4,1.4-1.8,1.4H40c-0.8,0-1.2-0.4-1.4-0.6c-0.3-0.3-0.4-0.8-0.3-1.3c0,0,0,0,0,0l0,0l0,0l0,0c0.1-0.7,1.5-9.3,2.2-13.4
		c0.3-1.8,0.5-3,0.5-3.1c0.1-0.9,0.8-1.5,1.7-1.5H54c0.3,0,0.7,0.1,1,0.3l0.1,0.1l0.1-0.1c0.3-0.3,0.7-0.4,1.2-0.4h4.4
		c0.3,0,0.9,0,1.4,0.5l0.2,0.2l0.2-0.2c0.3-0.3,0.8-0.5,1.2-0.5h4c1.1,0,1.6,0.7,1.9,1.1c0.1,0.1,0.3,0.7,1.1,2.6L71,63l0.1-0.7
		c0.2-1.1,0.3-1.7,0.3-1.8c0.2-1.1,0.9-1.8,1.8-1.8h4.1c0.7,0,1.2,0.2,1.6,0.6l0.2,0.2l0.2-0.2c0.3-0.4,0.8-0.6,1.4-0.6h4.4
		c0.2,0,1,0,1.5,0.6c0.2,0.3,0.5,0.7,0.4,1.4l-0.1,0.6l0.4-0.4c0,0,0.1-0.1,0.1-0.1c1.2-1.1,3.2-2.4,6.6-2.2c3,0.1,4.7,1.6,5.6,2.9
		c0,0,0.1,0.1,0.1,0.1l0.3,0.4l0.1-0.5c0.1-0.7,0.2-1,0.2-1c0.3-1.6,1.4-1.7,1.8-1.7h4.4c0.2,0,1,0,1.5,0.6c0.2,0.3,0.5,0.8,0.4,1.6
		c0,0.2-0.2,1.4-0.6,3.6l0,0.2h2l0-0.2c0.4-2.5,0.7-4,0.7-4.1c0.3-1.6,1.5-1.7,1.8-1.7h4.4c0.2,0,0.8,0,1.3,0.4l0.1,0.1l0.1-0.1
		c0.3-0.3,0.7-0.4,1.2-0.4h4.4c0.2,0,0.9,0,1.4,0.5l0.2,0.2l0.2-0.2c0.3-0.3,0.8-0.5,1.2-0.5h4c1.1,0,1.6,0.7,1.9,1.1
		c0.1,0.1,0.3,0.7,1.1,2.6l0.3,0.7l0.1-0.7c0.2-1.2,0.3-1.7,0.3-1.8c0.2-1.1,0.9-1.8,1.8-1.8h4.1c0.7,0,1.3,0.2,1.6,0.6
		c0.3,0.4,0.5,0.9,0.4,1.4c0,0-0.1,0.9-0.4,2.3l-0.1,0.9l0.5-0.7c0.1-0.1,0.2-0.2,0.3-0.4c2-2.6,4.8-4,8-4c2.5,0,4.4,0.7,5.8,2.1
		C157.8,62.9,157.8,65.6,157.8,66.1L157.8,66.1L157.8,66.1z"/>
	<path class="st1" d="M97.6,66.8c0.3,0.2,0.6,0.5,0.9,0.7l0.3,0.3l0.2-1.4h-2L97.6,66.8z M98.5,66.8l0,0.1c-0.1,0-0.1-0.1-0.2-0.1
		H98.5z"/>
	<path class="st1" d="M147.7,70.7l0-0.1c0.3-1.7,0.4-2,0.4-2.2l0,0c0.2-1.1,1-1.4,1.7-1.4h0.9l-0.1-0.3c0-0.1-0.1-0.3-0.1-0.5l0-0.1
		l0,0c-0.1-0.2-0.4-0.6-0.9-0.6c0,0,0,0,0,0c-0.2,0-1.5,0.1-2.3,2.7c-0.6,2-0.5,3.6,0,4.2c0,0,0,0,0,0l0.9,1.1l-0.5-1.3
		c-0.1-0.3-0.1-0.6-0.1-1C147.6,71.3,147.6,71,147.7,70.7z M147.3,70.5l0,0.1c0,0.1,0,0.2-0.1,0.3c0-0.7,0.1-1.6,0.4-2.5
		c0.7-2.4,1.8-2.4,1.9-2.4l0,0c0.4,0,0.5,0.3,0.5,0.3l0,0c0,0.1,0,0.2,0.1,0.2h-0.3c-0.8,0-1.8,0.5-2.1,1.8
		C147.7,68.4,147.7,68.8,147.3,70.5z"/>
	<path class="st1" d="M90.9,72.4c0.1,0,0.1,0,0.2,0.1l0.1-0.4c-0.1,0-0.1,0-0.2-0.1l0,0h0l-0.8-0.2l0.6,0.6L90.9,72.4L90.9,72.4z"/>
	<path class="st1" d="M85,70.6h2.4l-0.5-0.4c-0.5-0.4-0.9-0.8-1.3-1.2l-0.3-0.4L85,70.6z M85.6,69.6c0.2,0.2,0.4,0.4,0.6,0.6h-0.7
		L85.6,69.6z"/>
	<path class="st1" d="M116.5,49.8c-0.3-1.5-1.3-2.3-1.3-2.3c1.2-0.6,2.4-1.9,2.7-5c0.4-3.1-3.4-4.1-4.9-4.1c-1.5,0-7.2,0-7.7,0
		c-0.5,0-0.5,0.2-0.6,0.8c-0.1,0.6-2.5,15.3-2.6,15.6c0,0.3-0.1,0.9,0.4,0.9c0,0,3.1,0,3.9,0s1-0.4,1-1c0.1-0.5,0.9-5,0.9-5
		c2.7-0.6,3.1,1,3,1.5c0,0.5-0.4,3.2-0.5,3.5c0,0.3,0.1,0.9,0.4,0.9c0.4,0,4.5,0,4.7,0c0.2,0,0.4-0.8,0.3-0.9
		c-0.1-0.2-0.1,0.1-0.3-0.4C116,54.1,116.8,51.3,116.5,49.8z M112.7,44.3c-0.4,1.7-3.7,1.2-3.7,1.2c0-0.1,0.2-1.7,0.4-2.6
		c0,0,1-0.1,1.2-0.1C110.9,42.8,113,42.7,112.7,44.3z"/>
	<path class="st1" d="M125.8,38.5c-0.3,0-4.4,0-4.4,0c-0.4,0-0.5,0.4-0.6,0.7c-0.1,0.3-2.6,15.6-2.6,16c-0.1,0.4,0.1,0.7,0.4,0.7
		c0.4,0,3.7,0,4.3,0c0.6,0,0.6-0.3,0.6-0.5c0-0.2,2.7-15.4,2.8-16.1C126.5,38.5,126.1,38.5,125.8,38.5z"/>
	<path class="st1" d="M60.8,59.8c-0.3,0-4.4,0-4.4,0c-0.4,0-0.5,0.4-0.6,0.7c-0.1,0.3-2.6,15.6-2.6,16c-0.1,0.4,0.1,0.7,0.4,0.7
		c0.4,0,3.7,0,4.3,0c0.6,0,0.6-0.3,0.6-0.5c0-0.2,2.7-15.4,2.8-16.1C61.5,59.9,61.1,59.8,60.8,59.8z"/>
	<path class="st1" d="M84.9,59.8c-0.3,0-4.4,0-4.4,0c-0.4,0-0.5,0.4-0.6,0.7s-2.6,15.6-2.6,16c-0.1,0.4,0.1,0.7,0.4,0.7
		c0.4,0,3.7,0,4.3,0c0.6,0,0.6-0.3,0.6-0.5c0-0.2,2.7-15.4,2.8-16.1C85.5,59.9,85.1,59.8,84.9,59.8z"/>
	<path class="st1" d="M123.3,59.8c-0.3,0-4.4,0-4.4,0c-0.4,0-0.5,0.4-0.6,0.7s-2.6,15.6-2.6,16c-0.1,0.4,0.1,0.7,0.4,0.7
		c0.4,0,3.7,0,4.3,0c0.6,0,0.6-0.3,0.6-0.5c0-0.2,2.7-15.4,2.8-16.1C124,59.9,123.6,59.8,123.3,59.8z"/>
	<path class="st1" d="M141.3,48.7c-0.3,0-4,0-4.4,0c-0.3,0-0.4,0.1-0.6,0.8c-0.2,0.7-1.1,2.2-2.8,2.2s-1.9-2.1-1.6-4.3
		c0.4-2.2,1.4-4.6,3-4.6c1.7,0,1.8,1.6,1.9,2.1c0.1,0.5,0.2,0.8,0.6,0.8c0,0,3.8,0,4.1,0c0.3,0,0.5-0.5,0.5-1.1
		c0-0.6-0.8-6.4-6.5-6.4c-5.7,0-8.4,5.6-9.1,8.4c-0.6,2.9-0.6,9.9,6.1,9.9c6.7,0,8.5-6.1,8.7-6.6C141.7,49.3,141.6,48.7,141.3,48.7z
		"/>
	<path class="st1" d="M175.1,38.5c-0.2,0-3.8,0-4.1,0c-0.2,0-0.4,0.4-0.5,0.7c-0.1,0.4-1.1,7.2-1.1,7.2s-2.8-7.1-3.1-7.5
		c-0.2-0.4-0.6-0.4-0.8-0.4s-4,0-4,0c-0.4,0-0.5,0.6-0.6,1c-0.1,0.3-2.4,14.4-2.5,15.1c-0.1,0.7,0.1,1.2,0.5,1.2c0.4,0,3.7,0,4,0
		c0.4,0,0.5-0.5,0.6-0.7c0-0.3,1.2-7,1.2-7s2.7,6.4,2.9,7c0.2,0.6,0.6,0.7,1,0.7c0.4,0,3.4,0,3.7,0s0.6-0.1,0.8-0.8
		c0.1-0.6,2.6-15.4,2.7-15.9C175.9,38.5,175.2,38.5,175.1,38.5z"/>
	<path class="st1" d="M139.7,59.9c-0.2,0-3.8,0-4.1,0c-0.2,0-0.4,0.4-0.5,0.7c-0.1,0.4-1.1,7.2-1.1,7.2s-2.8-7.1-3.1-7.5
		s-0.6-0.4-0.8-0.4s-4,0-4,0c-0.4,0-0.5,0.6-0.6,1c-0.1,0.3-2.4,14.4-2.5,15.1c-0.1,0.7,0.1,1.2,0.5,1.2c0.4,0,3.7,0,4,0
		s0.5-0.5,0.6-0.7c0-0.3,1.2-7,1.2-7s2.7,6.4,2.9,7c0.2,0.6,0.6,0.7,1,0.7c0.4,0,3.4,0,3.7,0c0.3,0,0.6-0.1,0.8-0.8
		c0.1-0.6,2.6-15.4,2.7-15.9C140.6,59.9,139.9,59.9,139.7,59.9z"/>
	<path class="st1" d="M77.2,59.9c-0.2,0-3.8,0-4.1,0s-0.4,0.4-0.5,0.7c-0.1,0.4-1.1,7.2-1.1,7.2s-2.8-7.1-3.1-7.5
		c-0.2-0.4-0.6-0.4-0.8-0.4c-0.2,0-4,0-4,0c-0.4,0-0.5,0.6-0.6,1c-0.1,0.3-2.4,14.4-2.5,15.1c-0.1,0.7,0.1,1.2,0.5,1.2
		c0.4,0,3.7,0,4,0c0.4,0,0.5-0.5,0.6-0.7c0-0.3,1.2-7,1.2-7s2.7,6.4,2.9,7c0.2,0.6,0.6,0.7,1,0.7c0.4,0,3.4,0,3.7,0
		c0.3,0,0.6-0.1,0.8-0.8c0.1-0.6,2.6-15.4,2.7-15.9C78,59.9,77.4,59.9,77.2,59.9z"/>
	<path class="st1" d="M116.2,59.8c-0.3,0-4.4,0-4.4,0c-0.4,0-0.5,0.4-0.6,0.7c0,0.1-0.4,2.5-0.9,5.4h-4.6c0.5-2.8,0.9-5.1,0.9-5.3
		c0.1-0.7-0.3-0.7-0.6-0.7s-4.4,0-4.4,0c-0.4,0-0.5,0.4-0.6,0.7s-2.6,15.6-2.6,16c-0.1,0.4,0.1,0.7,0.4,0.7c0.4,0,3.7,0,4.3,0
		c0.6,0,0.6-0.3,0.6-0.5c0-0.1,0.5-2.8,1-6h4.6c-0.5,3-0.9,5.6-0.9,5.8c-0.1,0.4,0.1,0.7,0.4,0.7s3.7,0,4.3,0c0.6,0,0.6-0.3,0.6-0.5
		c0-0.2,2.7-15.4,2.8-16.1C116.9,59.9,116.5,59.8,116.2,59.8z"/>
	<path class="st1" d="M93.2,66.4c-1.4-0.4-2.2-0.8-2.2-1.6c0-0.7,0.5-1.3,1.6-1.3c1.2,0,1.5,0.4,1.9,1.2c0.1,0.2,0.3,0.3,0.7,0.3
		c0.3,0,3.2,0,3.5,0c0.3,0,0.6-0.1,0.6-0.3c0.1-0.2-0.6-4.8-5.7-5.1c-5.1-0.2-7.3,3.2-7.7,5.9c-0.4,2.7,1.9,4.1,4.1,4.8
		c2.2,0.6,3.3,0.8,3.6,1.7c0.2,0.8-0.9,1.7-1.8,1.7c-1.7,0-2-0.4-2.4-1.1c-0.2-0.4-0.1-0.7-0.5-0.7c-0.4,0-3.7,0-3.9,0
		c-0.2,0-0.8-0.1-0.6,1.1c0.3,2,2.2,4.7,7.1,4.7c4.9,0,7.2-3.6,7.1-6.7C98.5,67.5,94.6,66.8,93.2,66.4z"/>
	<path class="st1" d="M63.8,17.1c-0.1,0-4.3,0-4.5,0c-0.2,0-0.3-0.1-0.4,0.1c-1,2.3-7.4,16-7.6,16.5c-0.3,0.5,0.2,0.6,0.5,0.6
		c0.3,0,3.5,0,3.9,0s0.5-0.2,0.6-0.3c0-0.1,1.1-2,1.1-2h3.8c0,0,0.3,1.6,0.4,1.9c0.1,0.3,0.3,0.4,0.4,0.4c0.1,0,3.9,0,4.3,0
		c0.4,0,0.6-0.3,0.5-0.6c0-0.3-2.5-16.1-2.5-16.3C64.3,17.3,63.9,17.1,63.8,17.1z M58.8,28.2l1.8-4.3l0.5,4.3H58.8z"/>
	<path class="st1" d="M63.8,38.5c-0.1,0-4.3,0-4.5,0c-0.2,0-0.3-0.1-0.4,0.1c-1,2.3-7.4,16-7.6,16.5c-0.3,0.5,0.2,0.6,0.5,0.6
		c0.3,0,3.5,0,3.9,0s0.5-0.2,0.6-0.3c0-0.1,1.1-2,1.1-2h3.8c0,0,0.3,1.6,0.4,1.9c0.1,0.3,0.3,0.4,0.4,0.4c0.1,0,3.9,0,4.3,0
		c0.4,0,0.6-0.3,0.5-0.6c0-0.3-2.5-16.1-2.5-16.3C64.3,38.6,63.9,38.5,63.8,38.5z M58.8,49.5l1.8-4.3l0.5,4.3H58.8z"/>
	<path class="st1" d="M153.8,38.5c-0.1,0-4.3,0-4.5,0c-0.2,0-0.3-0.1-0.4,0.1c-1,2.3-7.4,16-7.6,16.5c-0.3,0.5,0.2,0.6,0.5,0.6
		c0.3,0,3.5,0,3.9,0c0.4,0,0.5-0.2,0.6-0.3c0-0.1,1.1-2,1.1-2h3.8c0,0,0.3,1.6,0.4,1.9c0.1,0.3,0.3,0.4,0.4,0.4s3.9,0,4.3,0
		c0.4,0,0.6-0.3,0.5-0.6c0-0.3-2.5-16.1-2.5-16.3C154.3,38.6,153.9,38.5,153.8,38.5z M148.8,49.5l1.8-4.3l0.5,4.3H148.8z"/>
	<path class="st1" d="M75.9,17.1c-0.4,0-4.3,0-4.3,0c-0.3,0-0.5,0.1-0.6,0.8c-0.1,0.7-2.4,15.2-2.5,15.7c-0.1,0.5,0.2,0.8,0.6,0.8
		s10.2,0,10.6,0c0.4,0,0.5-0.1,0.6-0.4c0.1-0.3,0.6-3.2,0.6-3.5c0.1-0.3-0.4-0.4-0.5-0.4s-6,0-6,0s1.9-12,2-12.2
		C76.4,17.6,76.4,17.1,75.9,17.1z"/>
	<path class="st1" d="M82.8,34.4c0.4,0,10.2,0,10.6,0c0.4,0,0.5-0.1,0.6-0.4c0.1-0.3,0.6-3.2,0.6-3.5c0.1-0.3-0.4-0.4-0.5-0.4
		c-0.1,0-6,0-6,0s1.9-12,2-12.2c0.1-0.3,0-0.7-0.5-0.7s-4.3,0-4.3,0c-0.3,0-0.5,0.1-0.6,0.8c-0.1,0.7-2.4,15.2-2.5,15.7
		C82.2,34.1,82.5,34.4,82.8,34.4z"/>
	<path class="st1" d="M87.4,38.5c-0.1,0-5.2,0-5.5,0s-0.4,0.3-0.5,0.5c-0.1,0.3-3.5,8.5-3.5,8.5s-0.9-8.3-1-8.6
		c0-0.3-0.2-0.5-0.4-0.5s-5.1,0-5.3,0c-0.3,0-0.5,0.2-0.6,0.5c-0.4,2.4-2.5,15.6-2.6,16c-0.1,0.4,0,0.8,0.4,0.8c0.4,0,3.2,0,3.7,0
		c0.5,0,0.6-0.1,0.6-0.3c0.1-0.2,1.1-6.7,1.1-6.7s0.7,6.3,0.7,6.6c0,0.3,0.1,0.4,0.4,0.4c0.3,0,2.5,0,2.8,0c0.3,0,0.6,0,0.7-0.4
		c0.2-0.4,2.8-6.9,2.8-6.9s-0.9,6.4-0.9,6.7c0,0.3,0,0.6,0.2,0.6c0.2,0,3.8,0,4,0s0.3-0.2,0.3-0.3c0-0.1,2.7-16,2.8-16.5
		C87.9,38.5,87.5,38.5,87.4,38.5z"/>
	<path class="st1" d="M100,51.5c-0.2,0-4.4,0-6.4,0l0.4-2.3h5.4c0.5,0,0.7-0.1,0.7-0.2c0-0.1,0.5-3.1,0.6-3.4
		c0.1-0.3-0.3-0.6-0.6-0.6c-0.2,0-3.1,0-5.2,0l0.4-2.3h6.1c0.5,0,0.7-0.1,0.7-0.2c0-0.1,0.5-3.1,0.6-3.4c0.1-0.3-0.3-0.6-0.6-0.6
		c-0.2,0-3.8,0-6,0c-0.3,0-0.5,0-0.7,0c-0.5,0-0.9,0-0.9,0c-1.3,0-3.6,0-3.7,0c-0.1,0-0.4,0-0.4,0.4c-0.1,0.4-2.6,16.4-2.7,16.6
		c0,0.2,0.1,0.3,0.4,0.3c0.2,0,1.2,0,2.2,0H92h7.4c0.5,0,0.7-0.1,0.7-0.2c0-0.1,0.5-3.1,0.6-3.4C100.7,51.9,100.3,51.5,100,51.5z"/>
	<path class="st1" d="M52.1,66.6c-0.2,0-3.1,0-5.2,0l0.4-2.3h6.1c0.5,0,0.7-0.1,0.7-0.2c0-0.1,0.5-3.1,0.6-3.4
		c0.1-0.3-0.3-0.6-0.6-0.6c-0.2,0-3.8,0-6,0c-0.3,0-0.5,0-0.7,0c-0.5,0-0.9,0-0.9,0c-1.3,0-3.6,0-3.7,0c-0.1,0-0.4,0-0.4,0.4
		c-0.1,0.4-2.6,16.4-2.7,16.6c0,0.2,0.1,0.3,0.4,0.3c0.3,0,4,0,4,0h0.3c0.3,0,0.5-0.1,0.6-0.4c0-0.1,0-0.1,0-0.1l0-0.1
		c0,0,0,0,0-0.1l0-0.1c0,0,0,0,0,0c0,0,0,0,0-0.1l0,0c0,0,0,0,0,0l1.1-5.7h5.4c0.5,0,0.7-0.1,0.7-0.2c0-0.1,0.5-3.1,0.6-3.4
		C52.8,66.9,52.4,66.6,52.1,66.6z"/>
	<path class="st1" d="M151.7,65.8c0.2,0.7,0.2,0.7,0.4,0.7c0,0,3.6-0.1,4-0.1c0.4,0,0.3-0.3,0.3-0.4c0-0.1,0.3-6.1-6.5-6.1
		c-6.8,0-8.9,6.7-9.2,7.8c-0.3,1.2-1.6,7.2,3,9.5c4.6,2.3,8-1.4,8-1.3c0,0.1-0.1,1-0.2,1.3s0.1,0.4,0.3,0.4c0.2,0,2.1,0,2.3,0
		c0.3,0,0.4-0.2,0.4-0.5c0.1-0.3,1.6-7.9,1.7-8.3c0.1-0.4,0.3-0.9-0.2-0.9c-0.4,0-6,0-6.3,0c-0.4,0-0.4,0.3-0.4,0.4
		c0,0.1-0.6,2.7-0.6,3c0,0.2,0,0.4,0.2,0.4c0.2,0,2.2,0,2.2,0s-1.1,2.1-3.3,2.1c-2.2,0-2.9-2.9-1.9-6.2c1.1-3.3,2.9-3.6,3.6-3.6
		C150.8,64.3,151.6,65.2,151.7,65.8z"/>
	<path class="st1" d="M39.2,82.8c0.2-0.6,0.1-1.2-0.1-1.7c-0.3-0.5-0.8-0.7-1.6-0.7c-0.9,0-1.8,0.4-2.6,1.1
		c-0.7,0.7-1.3,1.6-1.7,2.7c-0.5,1.4-0.6,2.5-0.2,3.2c0.3,0.5,0.8,0.8,1.5,0.8c0.8,0,1.6-0.3,2.3-1c0.6-0.5,1.1-1.2,1.4-2h-0.8
		c-0.3,0.5-0.5,0.9-0.8,1.2c-0.5,0.6-1.1,0.9-1.7,0.9c-0.7,0-1.1-0.3-1.2-0.8c-0.1-0.5-0.1-1.2,0.2-2.1c0.4-1.1,0.8-1.9,1.4-2.4
		c0.6-0.5,1.1-0.8,1.7-0.8c0.5,0,0.8,0.1,1,0.4c0.2,0.3,0.2,0.7,0.2,1.1H39.2z"/>
	<path class="st1" d="M45.1,80.6l-1.6,4.6c-0.2,0.5-0.4,1-0.7,1.3c-0.5,0.6-1,0.9-1.8,0.9c-0.6,0-0.9-0.3-1-0.8c0-0.4,0-0.8,0.2-1.3
		l1.6-4.6h-0.8l-1.5,4.2c-0.3,0.9-0.5,1.6-0.4,2.1c0.1,0.9,0.6,1.3,1.6,1.3c1,0,1.9-0.4,2.6-1.3c0.4-0.5,0.7-1.2,1-2.1l1.5-4.2H45.1
		z"/>
	<path class="st1" d="M49.5,80.4c-0.7,0-1.3,0.2-1.9,0.6c-0.5,0.4-0.9,1-1.2,1.6c-0.2,0.6-0.2,1.1,0.1,1.4c0.2,0.2,0.5,0.3,1,0.5
		l0.8,0.2c0.4,0.1,0.7,0.3,0.8,0.4c0.2,0.2,0.2,0.5,0,0.9C49,86.6,48.6,87,48,87.2c-0.3,0.1-0.6,0.2-0.9,0.2c-0.7,0-1.1-0.2-1.2-0.7
		c-0.1-0.3,0-0.6,0.1-1h-0.8c-0.3,0.8-0.3,1.4,0,1.9c0.3,0.5,0.8,0.7,1.6,0.7c0.7,0,1.3-0.2,1.9-0.5c0.6-0.4,1.1-0.9,1.4-1.8
		c0.2-0.7,0.2-1.2-0.1-1.5c-0.2-0.2-0.4-0.4-0.8-0.5l-0.8-0.2c-0.5-0.2-0.9-0.3-1-0.4c-0.2-0.2-0.2-0.4-0.1-0.8
		c0.1-0.3,0.3-0.6,0.6-0.9c0.3-0.2,0.7-0.4,1.2-0.4c0.6,0,1,0.2,1.1,0.6c0.1,0.2,0,0.5-0.1,0.9H51c0.3-0.8,0.3-1.4,0-1.8
		C50.6,80.6,50.1,80.4,49.5,80.4z"/>
	<polygon class="st1" points="57.5,80.6 52.5,80.6 52.2,81.5 54.2,81.5 51.9,88 52.8,88 55.1,81.5 57.2,81.5 	"/>
	<path class="st1" d="M62.8,81.6c-0.2-0.8-0.9-1.3-2-1.3c-1,0-2,0.5-2.8,1.4c-0.7,0.7-1.2,1.6-1.5,2.6c-0.4,1.1-0.5,2-0.2,2.8
		c0.3,0.8,0.9,1.1,1.8,1.1c1,0,2-0.4,2.8-1.3c0.7-0.7,1.3-1.7,1.7-2.8C62.9,83.1,63,82.3,62.8,81.6z M61.7,84.2
		c-0.3,0.8-0.7,1.6-1.3,2.2c-0.6,0.6-1.2,1-1.9,1c-0.8,0-1.2-0.3-1.4-0.8c-0.1-0.6-0.1-1.3,0.2-2.1c0.4-1,0.8-1.8,1.4-2.3
		c0.6-0.5,1.2-0.8,1.8-0.8c0.7,0,1.1,0.3,1.3,0.8C62,82.6,62,83.3,61.7,84.2z"/>
	<path class="st1" d="M65.5,86.8l0.4-6.3h-1.2L62.2,88H63l1.5-4.4c0.1-0.2,0.2-0.4,0.3-0.8c0.1-0.4,0.2-0.6,0.3-0.8l0.1-0.2L64.7,88
		h0.8l4-6.3c-0.1,0.4-0.3,0.8-0.4,1.1c-0.1,0.4-0.2,0.6-0.3,0.8L67.3,88h0.8l2.6-7.4h-1.2L65.5,86.8z"/>
	<path class="st1" d="M79,80.6l-4,6.3l0.4-6.3h-1.2L71.7,88h0.8l1.5-4.4c0.1-0.2,0.2-0.4,0.3-0.8c0.1-0.4,0.2-0.6,0.3-0.8l0.1-0.2
		L74.3,88h0.8l4-6.3c-0.1,0.4-0.3,0.8-0.4,1.1c-0.1,0.4-0.2,0.6-0.3,0.8L76.8,88h0.8l2.6-7.4H79z"/>
	<polygon class="st1" points="79,88 83.6,88 83.9,87.1 80.1,87.1 81,84.6 84.4,84.6 84.7,83.7 81.3,83.7 82.1,81.5 85.8,81.5 
		86.1,80.6 81.6,80.6 	"/>
	<polygon class="st1" points="91.4,81.5 91.7,80.6 86.7,80.6 86.4,81.5 88.5,81.5 86.2,88 87.1,88 89.4,81.5 	"/>
	<path class="st1" d="M88.7,88h0.9l1.4-2.2h2.4L93.3,88h0.9l0.4-7.4h-0.9L88.7,88z M93.5,85h-1.9l2.1-3.3L93.5,85z"/>
	<path class="st1" d="M132.4,88h0.9l1.4-2.2h2.4L137,88h0.9l0.4-7.4h-0.9L132.4,88z M137.2,85h-1.9l2.1-3.3L137.2,85z"/>
	<polygon class="st1" points="98.4,80.6 97.6,80.6 95,88 99,88 99.3,87.1 96.2,87.1 	"/>
	<polygon class="st1" points="107.3,83.7 104.3,83.7 105.1,81.5 108.5,81.5 108.8,80.6 104.6,80.6 102,88 102.8,88 104,84.6 
		107,84.6 	"/>
	<path class="st1" d="M106.1,88h0.9l1.4-2.2h2.4l-0.2,2.2h0.9l0.4-7.4h-0.9L106.1,88z M110.9,85H109l2.1-3.3L110.9,85z"/>
	<path class="st1" d="M117.4,84c0.3-0.1,0.5-0.3,0.6-0.4c0.3-0.3,0.6-0.7,0.7-1.2c0.1-0.4,0.2-0.8,0.1-1.1c-0.1-0.5-0.5-0.8-1.3-0.8
		H115l-2.6,7.4h2.6c0.8,0,1.5-0.3,2.1-0.9c0.4-0.4,0.7-0.8,0.8-1.3c0.2-0.6,0.2-1,0.1-1.3C117.9,84.3,117.7,84.1,117.4,84z
		 M115.5,81.4h1.5c0.4,0,0.6,0,0.8,0.1c0.3,0.2,0.3,0.5,0.1,1c-0.2,0.5-0.4,0.8-0.8,1c-0.2,0.1-0.5,0.2-0.9,0.2h-1.5L115.5,81.4z
		 M117.1,85.8c-0.1,0.3-0.3,0.6-0.5,0.8c-0.3,0.4-0.8,0.5-1.3,0.5h-1.8l0.9-2.6h1.7c0.4,0,0.6,0.1,0.8,0.2
		C117.2,84.9,117.3,85.2,117.1,85.8z"/>
	<path class="st1" d="M125,82.6c0.3-0.9,0.2-1.4-0.3-1.8c-0.2-0.2-0.6-0.2-1.1-0.2h-2.9l-2.6,7.4h0.8l1.1-3.2h1.9
		c0.3,0,0.6,0,0.7,0.1c0.2,0.2,0.3,0.5,0.1,1l-0.4,1.2c-0.1,0.3-0.1,0.5-0.2,0.6c0,0.1,0,0.2,0,0.2h1l0.1-0.2
		c-0.1-0.1-0.1-0.2-0.1-0.5c0-0.1,0.1-0.3,0.2-0.6l0.3-1c0.1-0.4,0.2-0.7,0.1-0.9c-0.1-0.2-0.2-0.3-0.4-0.5c0.3-0.2,0.6-0.4,0.9-0.7
		C124.7,83.4,124.9,83,125,82.6z M124.1,82.7c-0.2,0.5-0.4,0.8-0.7,1c-0.3,0.2-0.6,0.3-1,0.3h-1.9l0.9-2.5h2c0.3,0,0.5,0.1,0.6,0.2
		C124.3,81.8,124.3,82.1,124.1,82.7z"/>
	<polygon class="st1" points="127.1,80.6 124.5,88 125.4,88 128,80.6 	"/>
	<path class="st1" d="M132.1,85.3c-0.3,0.5-0.5,0.9-0.8,1.2c-0.5,0.6-1.1,0.9-1.7,0.9c-0.7,0-1.1-0.3-1.2-0.8
		c-0.1-0.5-0.1-1.2,0.2-2.1c0.4-1.1,0.8-1.9,1.4-2.4c0.6-0.5,1.1-0.8,1.7-0.8c0.5,0,0.8,0.1,1,0.4c0.2,0.3,0.2,0.7,0.2,1.1h0.8
		c0.2-0.6,0.1-1.2-0.1-1.7c-0.3-0.5-0.8-0.7-1.6-0.7c-0.9,0-1.8,0.4-2.6,1.1c-0.7,0.7-1.3,1.6-1.7,2.7c-0.5,1.4-0.6,2.5-0.2,3.2
		c0.3,0.5,0.8,0.8,1.5,0.8c0.8,0,1.6-0.3,2.3-1c0.6-0.5,1.1-1.2,1.4-2H132.1z"/>
	<polygon class="st1" points="145.2,80.6 140.1,80.6 139.8,81.5 141.9,81.5 139.6,88 140.5,88 142.8,81.5 144.8,81.5 	"/>
	<path class="st1" d="M150.5,81.6c-0.2-0.8-0.9-1.3-2-1.3c-1,0-2,0.5-2.8,1.4c-0.7,0.7-1.2,1.6-1.5,2.6c-0.4,1.1-0.5,2-0.2,2.8
		c0.3,0.8,0.9,1.1,1.8,1.1c1,0,2-0.4,2.8-1.3c0.7-0.7,1.3-1.7,1.7-2.8C150.6,83.1,150.7,82.3,150.5,81.6z M149.3,84.2
		c-0.3,0.8-0.7,1.6-1.3,2.2c-0.6,0.6-1.2,1-1.9,1c-0.8,0-1.2-0.3-1.4-0.8c-0.1-0.6-0.1-1.3,0.2-2.1c0.4-1,0.8-1.8,1.4-2.3
		c0.6-0.5,1.2-0.8,1.8-0.8c0.7,0,1.1,0.3,1.3,0.8C149.7,82.6,149.6,83.3,149.3,84.2z"/>
	<path class="st1" d="M156.8,82.6c0.3-0.9,0.2-1.4-0.3-1.8c-0.2-0.2-0.6-0.2-1.1-0.2h-2.9L150,88h0.8l1.1-3.2h1.9
		c0.3,0,0.6,0,0.7,0.1c0.2,0.2,0.3,0.5,0.1,1l-0.4,1.2c-0.1,0.3-0.1,0.5-0.2,0.6c0,0.1,0,0.2,0,0.2h1l0.1-0.2
		c-0.1-0.1-0.1-0.2-0.1-0.5c0-0.1,0.1-0.3,0.2-0.6l0.3-1c0.1-0.4,0.2-0.7,0.1-0.9c-0.1-0.2-0.2-0.3-0.4-0.5c0.3-0.2,0.6-0.4,0.9-0.7
		C156.4,83.4,156.6,83,156.8,82.6z M155.9,82.7c-0.2,0.5-0.4,0.8-0.7,1c-0.3,0.2-0.6,0.3-1,0.3h-1.9l0.9-2.5h2
		c0.3,0,0.5,0.1,0.6,0.2C156,81.8,156.1,82.1,155.9,82.7z"/>
	<path class="st1" d="M160.9,80.4c-0.7,0-1.3,0.2-1.9,0.6c-0.5,0.4-0.9,1-1.2,1.6c-0.2,0.6-0.2,1.1,0.1,1.4c0.2,0.2,0.5,0.3,1,0.5
		l0.8,0.2c0.4,0.1,0.7,0.3,0.8,0.4c0.2,0.2,0.2,0.5,0,0.9c-0.2,0.5-0.6,0.9-1.1,1.1c-0.3,0.1-0.6,0.2-0.9,0.2
		c-0.7,0-1.1-0.2-1.2-0.7c-0.1-0.3,0-0.6,0.1-1h-0.8c-0.3,0.8-0.3,1.4,0,1.9c0.3,0.5,0.8,0.7,1.6,0.7c0.7,0,1.3-0.2,1.9-0.5
		c0.6-0.4,1.1-0.9,1.4-1.8c0.2-0.7,0.2-1.2-0.1-1.5c-0.2-0.2-0.4-0.4-0.8-0.5l-0.8-0.2c-0.5-0.2-0.9-0.3-1-0.4
		c-0.2-0.2-0.2-0.4-0.1-0.8c0.1-0.3,0.3-0.6,0.6-0.9c0.3-0.2,0.7-0.4,1.2-0.4c0.6,0,1,0.2,1.1,0.6c0.1,0.2,0,0.5-0.1,0.9h0.8
		c0.3-0.8,0.3-1.4,0-1.8C162,80.6,161.6,80.4,160.9,80.4z"/>
	<polygon class="st1" points="160.7,71.6 158.9,78.6 161.7,78.6 162,77.6 160.1,77.6 161.7,71.6 	"/>
	<polygon class="st1" points="165.8,71.6 164.8,71.6 162.9,78.6 165.8,78.6 166.1,77.6 164.2,77.6 	"/>
	<path class="st1" d="M171.4,72c-0.2-0.3-0.5-0.5-1-0.5c-0.2,0-0.5,0-0.7,0.1c-0.2,0.1-0.4,0.2-0.6,0.3c-0.2,0.1-0.3,0.3-0.5,0.5
		c-0.1,0.2-0.2,0.4-0.3,0.6l-1,3.8c-0.1,0.3-0.1,0.6-0.1,0.8c0,0.2,0.1,0.4,0.2,0.5c0.1,0.1,0.3,0.2,0.4,0.3
		c0.2,0.1,0.4,0.1,0.5,0.1c0.2,0,0.4,0,0.6-0.1c0.2-0.1,0.4-0.2,0.6-0.4c0.2-0.2,0.3-0.3,0.5-0.5c0.1-0.2,0.2-0.4,0.3-0.6l0.1-0.4
		h-1l-0.1,0.3c0,0.1-0.1,0.3-0.1,0.3c-0.1,0.1-0.1,0.2-0.2,0.2c-0.1,0.1-0.2,0.1-0.2,0.1c-0.1,0-0.2,0-0.2,0c-0.2,0-0.4-0.1-0.4-0.2
		c0-0.1,0-0.3,0-0.5l1-3.6c0.1-0.2,0.2-0.4,0.3-0.6c0.1-0.2,0.3-0.2,0.5-0.2c0.2,0,0.3,0.1,0.4,0.2c0.1,0.1,0.1,0.3,0,0.5l-0.1,0.3
		h1l0.1-0.4c0.1-0.2,0.1-0.5,0.1-0.7C171.5,72.3,171.5,72.2,171.4,72z"/>
</g>
</svg>
